<?xml version="1.0" encoding="UTF-8" standalone="no"?>
<!-- Created with Inkscape (http://www.inkscape.org/) -->
<svg
   xmlns:dc="http://purl.org/dc/elements/1.1/"
   xmlns:cc="http://web.resource.org/cc/"
   xmlns:rdf="http://www.w3.org/1999/02/22-rdf-syntax-ns#"
   xmlns:svg="http://www.w3.org/2000/svg"
   xmlns="http://www.w3.org/2000/svg"
   xmlns:xlink="http://www.w3.org/1999/xlink"
   xmlns:sodipodi="http://sodipodi.sourceforge.net/DTD/sodipodi-0.dtd"
   xmlns:inkscape="http://www.inkscape.org/namespaces/inkscape"
   width="48px"
   height="48px"
   id="svg4289"
   sodipodi:version="0.32"
   inkscape:version="0.45"
   sodipodi:docbase="/home/max/dev/homebank/gfx/gnome-theme"
   sodipodi:docname="budget.svg"
   inkscape:output_extension="org.inkscape.output.svg.inkscape"
   sodipodi:modified="true">
  <defs
     id="defs4291">
    <linearGradient
       inkscape:collect="always"
       id="linearGradient4171">
      <stop
         style="stop-color:#ffffff;stop-opacity:1;"
         offset="0"
         id="stop4173" />
      <stop
         style="stop-color:#ffffff;stop-opacity:0;"
         offset="1"
         id="stop4175" />
    </linearGradient>
    <linearGradient
       inkscape:collect="always"
       xlink:href="#linearGradient4171"
       id="linearGradient5210"
       gradientUnits="userSpaceOnUse"
       x1="-27.442137"
       y1="47.214706"
       x2="-9.6819067"
       y2="62.619846" />
    <linearGradient
       inkscape:collect="always"
       xlink:href="#linearGradient5193"
       id="linearGradient5208"
       gradientUnits="userSpaceOnUse"
       gradientTransform="matrix(0.8934685,0,0,0.5880995,42.217154,26.228199)"
       x1="42.426411"
       y1="58.076275"
       x2="32.350136"
       y2="16.35697" />
    <linearGradient
       id="linearGradient22140">
      <stop
         style="stop-color:black;stop-opacity:0;"
         offset="0"
         id="stop22142" />
      <stop
         id="stop22148"
         offset="0.5"
         style="stop-color:black;stop-opacity:1;" />
      <stop
         style="stop-color:black;stop-opacity:0;"
         offset="1"
         id="stop22144" />
    </linearGradient>
    <linearGradient
       inkscape:collect="always"
       xlink:href="#linearGradient22140"
       id="linearGradient23044"
       gradientUnits="userSpaceOnUse"
       x1="18.142136"
       y1="35"
       x2="18.142136"
       y2="42.040661" />
    <radialGradient
       inkscape:collect="always"
       xlink:href="#linearGradient22122"
       id="radialGradient23042"
       gradientUnits="userSpaceOnUse"
       gradientTransform="matrix(0,-1.000001,1.142856,0,-89.10259,-31.49999)"
       cx="7"
       cy="39.464806"
       fx="7"
       fy="39.464806"
       r="3.5" />
    <linearGradient
       inkscape:collect="always"
       id="linearGradient22122">
      <stop
         style="stop-color:black;stop-opacity:1;"
         offset="0"
         id="stop22124" />
      <stop
         style="stop-color:black;stop-opacity:0;"
         offset="1"
         id="stop22126" />
    </linearGradient>
    <radialGradient
       inkscape:collect="always"
       xlink:href="#linearGradient22122"
       id="radialGradient23040"
       gradientUnits="userSpaceOnUse"
       gradientTransform="matrix(0,-1.000001,1.142856,0,-41.10259,45.50001)"
       cx="7"
       cy="39.464806"
       fx="7"
       fy="39.464806"
       r="3.5" />
    <linearGradient
       inkscape:collect="always"
       id="linearGradient7025">
      <stop
         style="stop-color:#e6ce46;stop-opacity:1"
         offset="0"
         id="stop7027" />
      <stop
         style="stop-color:#d6ba1c;stop-opacity:1"
         offset="1"
         id="stop7029" />
    </linearGradient>
    <linearGradient
       inkscape:collect="always"
       xlink:href="#linearGradient7025"
       id="linearGradient10840"
       gradientUnits="userSpaceOnUse"
       gradientTransform="translate(53,1.428571)"
       x1="13.630114"
       y1="28.5"
       x2="25.208096"
       y2="41.180992" />
    <linearGradient
       id="linearGradient5193">
      <stop
         id="stop5195"
         offset="0"
         style="stop-color:#75507b;stop-opacity:1;" />
      <stop
         id="stop5197"
         offset="1"
         style="stop-color:#ad7fa8;stop-opacity:1;" />
    </linearGradient>
    <linearGradient
       inkscape:collect="always"
       xlink:href="#linearGradient5193"
       id="linearGradient2363"
       gradientUnits="userSpaceOnUse"
       gradientTransform="matrix(0.8934685,0,0,0.5880995,42.217154,26.228199)"
       x1="42.426411"
       y1="58.076275"
       x2="32.350136"
       y2="16.35697" />
  </defs>
  <sodipodi:namedview
     id="base"
     pagecolor="#ffffff"
     bordercolor="#666"
     borderopacity="0.14117647"
     inkscape:pageopacity="0.0"
     inkscape:pageshadow="2"
     inkscape:zoom="3.6573427"
     inkscape:cx="42.5"
     inkscape:cy="3.5"
     inkscape:current-layer="layer1"
     showgrid="false"
     inkscape:grid-bbox="true"
     inkscape:document-units="px"
     showguides="true"
     inkscape:guide-bbox="true"
     inkscape:window-width="872"
     inkscape:window-height="683"
     inkscape:window-x="50"
     inkscape:window-y="25"
     inkscape:showpageshadow="false" />
  <metadata
     id="metadata4294">
    <rdf:RDF>
      <cc:Work
         rdf:about="">
        <dc:format>image/svg+xml</dc:format>
        <dc:type
           rdf:resource="http://purl.org/dc/dcmitype/StillImage" />
        <cc:license
           rdf:resource="http://creativecommons.org/licenses/GPL/2.0/" />
        <dc:title>Accessories</dc:title>
        <dc:date>August 2006</dc:date>
        <dc:creator>
          <cc:Agent>
            <dc:title>Andreas Nilsson</dc:title>
          </cc:Agent>
        </dc:creator>
        <dc:source>http://www.gnome.org</dc:source>
        <dc:subject>
          <rdf:Bag>
            <rdf:li>accessories</rdf:li>
            <rdf:li>ruler</rdf:li>
            <rdf:li>scissors</rdf:li>
          </rdf:Bag>
        </dc:subject>
      </cc:Work>
      <cc:License
         rdf:about="http://creativecommons.org/licenses/GPL/2.0/">
        <cc:permits
           rdf:resource="http://web.resource.org/cc/Reproduction" />
        <cc:permits
           rdf:resource="http://web.resource.org/cc/Distribution" />
        <cc:requires
           rdf:resource="http://web.resource.org/cc/Notice" />
        <cc:permits
           rdf:resource="http://web.resource.org/cc/DerivativeWorks" />
        <cc:requires
           rdf:resource="http://web.resource.org/cc/ShareAlike" />
        <cc:requires
           rdf:resource="http://web.resource.org/cc/SourceCode" />
      </cc:License>
    </rdf:RDF>
  </metadata>
  <g
     id="layer1"
     inkscape:label="Layer 1"
     inkscape:groupmode="layer">
    <g
       id="g22150"
       style="opacity:0.3"
       transform="matrix(0.916667,0,0,0.714282,2,16.00012)">
      <rect
         y="35"
         x="0"
         height="7"
         width="4"
         id="rect22120"
         style="opacity:1;fill:url(#radialGradient23040);fill-opacity:1;stroke:none;stroke-width:3;stroke-linecap:square;stroke-linejoin:miter;stroke-miterlimit:10;stroke-dasharray:none;stroke-dashoffset:1.20000057;stroke-opacity:1" />
      <rect
         transform="scale(-1,-1)"
         y="-42"
         x="-48"
         height="7"
         width="4"
         id="rect22134"
         style="opacity:1;fill:url(#radialGradient23042);fill-opacity:1;stroke:none;stroke-width:3;stroke-linecap:square;stroke-linejoin:miter;stroke-miterlimit:10;stroke-dasharray:none;stroke-dashoffset:1.20000057;stroke-opacity:1" />
      <rect
         y="35"
         x="4"
         height="7"
         width="40"
         id="rect22138"
         style="opacity:1;fill:url(#linearGradient23044);fill-opacity:1;stroke:none;stroke-width:3;stroke-linecap:square;stroke-linejoin:miter;stroke-miterlimit:10;stroke-dasharray:none;stroke-dashoffset:1.20000057;stroke-opacity:1" />
    </g>
    <g
       id="g10824"
       transform="translate(-53,-1.428571)">
      <path
         id="path4319"
         d="M 57.5,14.928571 L 57.5,44.928571 L 96.5,44.928571 L 57.5,14.928571 z M 63.5,27.928571 L 78.5,38.928571 L 63.5,38.928571 L 63.5,27.928571 z "
         style="fill:url(#linearGradient10840);fill-opacity:1;fill-rule:evenodd;stroke:#a38503;stroke-width:1.00000024px;stroke-linecap:butt;stroke-linejoin:miter;stroke-opacity:1" />
      <path
         sodipodi:nodetypes="cc"
         id="path4326"
         d="M 61.5,44.928571 L 61.5,41.928571"
         style="fill:none;fill-opacity:0.75;fill-rule:evenodd;stroke:#a38503;stroke-width:1px;stroke-linecap:round;stroke-linejoin:miter;stroke-opacity:1" />
      <path
         sodipodi:nodetypes="cc"
         id="path4328"
         d="M 67.5,44.928571 L 67.5,41.928571"
         style="fill:none;fill-opacity:0.75;fill-rule:evenodd;stroke:#a38503;stroke-width:1px;stroke-linecap:round;stroke-linejoin:miter;stroke-opacity:1" />
      <path
         sodipodi:nodetypes="cc"
         id="path4330"
         d="M 73.5,44.928571 L 73.5,41.964285"
         style="fill:none;fill-opacity:0.75;fill-rule:evenodd;stroke:#a38503;stroke-width:1px;stroke-linecap:round;stroke-linejoin:miter;stroke-opacity:1" />
      <path
         sodipodi:nodetypes="cc"
         id="path4332"
         d="M 79.5,44.928571 L 79.5,41.928571"
         style="fill:none;fill-opacity:0.75;fill-rule:evenodd;stroke:#a38503;stroke-width:1px;stroke-linecap:round;stroke-linejoin:miter;stroke-opacity:1" />
      <path
         sodipodi:nodetypes="cc"
         id="path4334"
         d="M 85.5,44.928571 L 85.5,41.928571"
         style="fill:none;fill-opacity:0.75;fill-rule:evenodd;stroke:#a38503;stroke-width:1px;stroke-linecap:round;stroke-linejoin:miter;stroke-opacity:1" />
      <path
         id="path6126"
         d="M 58.500002,16.928575 L 58.500002,43.928586 L 93.500014,43.928586 L 58.500002,16.928575 z "
         style="opacity:0.4;fill:none;fill-opacity:0.75;fill-rule:evenodd;stroke:white;stroke-width:1.0000006px;stroke-linecap:butt;stroke-linejoin:miter;stroke-opacity:1" />
    </g>
    <path
       style="fill:none;fill-opacity:0.75;fill-rule:evenodd;stroke:white;stroke-width:1px;stroke-linecap:butt;stroke-linejoin:miter;stroke-opacity:1;opacity:0.4"
       d="M 9.5017474,38.542446 L 9.4575532,24.532894 L 28.541592,38.563262 L 9.5017474,38.542446 z "
       id="path12221"
       sodipodi:nodetypes="cccc" />
    <path
       sodipodi:type="arc"
       style="opacity:0.64824121;color:black;fill:white;fill-opacity:1;fill-rule:nonzero;stroke:none;stroke-width:1;stroke-linecap:butt;stroke-linejoin:miter;marker:none;marker-start:none;marker-mid:none;marker-end:none;stroke-miterlimit:4;stroke-dasharray:none;stroke-dashoffset:0;stroke-opacity:1;visibility:visible;display:inline;overflow:visible"
       id="path2801"
       sodipodi:cx="37.498756"
       sodipodi:cy="12.357399"
       sodipodi:rx="0.59662133"
       sodipodi:ry="0.59662133"
       d="M 38.095378 12.357399 A 0.59662133 0.59662133 0 1 1  36.902135,12.357399 A 0.59662133 0.59662133 0 1 1  38.095378 12.357399 z"
       transform="matrix(0.825663,0,0,0.825663,6.514811,1.289563)" />
    <g
       style="display:inline"
       inkscape:label="Base"
       id="g2395"
       transform="translate(-43.129775,22.481819)" />
    <g
       style="display:inline"
       id="g5198"
       transform="translate(97.05174,-52.386853)">
      <path
         sodipodi:nodetypes="ccccccccccccccccc"
         id="path5180"
         d="M -73.095774,68.688466 C -70.978698,68.671018 -68.500917,68.669671 -66.384265,68.607411 C -64.282895,68.721078 -70.602184,61.641631 -63.783076,61.824496 C -57.582869,61.449897 -63.705096,68.827958 -61.657944,68.627653 C -58.162439,68.539251 -55.353884,68.559149 -53.609758,68.580611 C -53.671854,71.395649 -53.813799,70.553641 -53.665819,73.750465 C -53.553752,76.751545 -59.806329,71.381094 -59.937379,76.67556 C -59.760297,82.148917 -53.34321,76.345008 -53.414136,79.428592 C -53.362948,82.372596 -53.196785,82.49671 -53.308441,86.40817 C -57.829242,86.562818 -59.415853,86.631485 -61.590072,86.59591 C -63.644168,86.648271 -58.333382,80.393833 -63.94267,80.344084 C -69.533786,80.41716 -64.127655,86.605878 -66.655429,86.60914 C -68.968201,86.582627 -70.578538,86.834841 -72.705502,86.575765 C -72.745758,85.089946 -72.754927,81.511549 -72.73281,79.236229 C -72.706571,77.487153 -78.683863,82.680537 -78.923403,77.076913 C -79.021325,71.689768 -72.959041,76.78427 -73.024823,74.504622 C -73.134617,71.797781 -73.095774,71.118977 -73.095774,68.688466 z "
         style="opacity:1;color:#000000;fill:url(#linearGradient5208);fill-opacity:1;fill-rule:evenodd;stroke:#5c3566;stroke-width:0.9710086;stroke-linecap:butt;stroke-linejoin:miter;marker:none;marker-start:none;marker-mid:none;marker-end:none;stroke-miterlimit:4;stroke-dasharray:none;stroke-dashoffset:0;stroke-opacity:1;visibility:visible;display:inline;overflow:visible;enable-background:accumulate" />
      <path
         transform="translate(-44.629856,22.674847)"
         sodipodi:type="inkscape:offset"
         inkscape:radius="-0.88081747"
         inkscape:original="M -19.15625 39.15625 C -25.975358 38.973385 -19.648629 46.051168 -21.75 45.9375 C -23.866652 45.99976 -26.351674 45.982554 -28.46875 46 C -28.46875 48.430511 -28.516045 49.136908 -28.40625 51.84375 C -28.340468 54.123397 -34.37917 49.019107 -34.28125 54.40625 C -34.04171 60.009874 -28.06751 54.813424 -28.09375 56.5625 C -28.115867 58.83782 -28.102757 62.420432 -28.0625 63.90625 C -25.935536 64.165326 -24.344021 63.910988 -22.03125 63.9375 C -19.503476 63.934238 -24.903615 57.729328 -19.3125 57.65625 C -13.703212 57.705999 -19.022845 63.958612 -16.96875 63.90625 C -14.794531 63.941825 -13.208301 63.873399 -8.6875 63.71875 C -8.575844 59.80729 -8.7300617 59.694003 -8.78125 56.75 C -8.7103236 53.666417 -15.135418 59.473357 -15.3125 54 C -15.18145 48.705535 -8.9191824 54.063579 -9.03125 51.0625 C -9.1792294 47.865676 -9.0308467 48.721287 -8.96875 45.90625 C -10.712877 45.884788 -13.535745 45.849097 -17.03125 45.9375 C -19.078402 46.137805 -12.956044 38.78165 -19.15625 39.15625 z "
         xlink:href="#path2189"
         style="opacity:0.5;color:#000000;fill:none;fill-opacity:1;fill-rule:nonzero;stroke:url(#linearGradient5210);stroke-width:0.93168801;stroke-linecap:round;stroke-linejoin:round;marker:none;marker-start:none;marker-mid:none;marker-end:none;stroke-miterlimit:4;stroke-dasharray:none;stroke-dashoffset:0;stroke-opacity:1;visibility:visible;display:inline;overflow:visible"
         id="path5182"
         inkscape:href="#path2189"
         d="M -19.1875,40.03125 C -20.743718,39.989518 -21.228463,40.341332 -21.40625,40.625 C -21.584037,40.908668 -21.584171,41.504683 -21.375,42.28125 C -21.165829,43.057817 -20.782931,43.912507 -20.5625,44.65625 C -20.452284,45.028122 -20.353552,45.368113 -20.46875,45.875 C -20.526349,46.128444 -20.688979,46.444897 -20.96875,46.625 C -21.216704,46.78462 -21.489582,46.782882 -21.71875,46.78125 L -21.71875,46.8125 C -21.748493,46.813375 -21.782625,46.811656 -21.8125,46.8125 C -23.654973,46.86456 -25.715021,46.866212 -27.59375,46.875 C -27.601936,48.570471 -27.623952,49.527054 -27.53125,51.8125 C -27.51756,52.286914 -27.764243,52.900908 -28.21875,53.15625 C -28.673257,53.411592 -29.079015,53.360125 -29.4375,53.3125 C -30.154471,53.217251 -30.858122,52.956112 -31.53125,52.8125 C -32.204378,52.668888 -32.756629,52.691437 -32.96875,52.8125 C -33.180871,52.933563 -33.427786,53.190164 -33.40625,54.375 C -33.353285,55.614019 -33.046643,55.946967 -32.78125,56.09375 C -32.515857,56.240533 -31.986174,56.230906 -31.3125,56.0625 C -30.638826,55.894094 -29.908151,55.618033 -29.25,55.4375 C -28.920925,55.347233 -28.621108,55.239299 -28.15625,55.34375 C -27.923821,55.395975 -27.620076,55.556614 -27.4375,55.8125 C -27.254924,56.068386 -27.215255,56.329504 -27.21875,56.5625 C -27.238209,58.564346 -27.216955,61.350488 -27.1875,63.03125 C -25.581133,63.139327 -24.157123,63.051208 -22.1875,63.0625 C -22.231714,62.655928 -22.505385,61.848037 -22.6875,61 C -22.869615,60.151963 -23.031001,59.176092 -22.53125,58.25 C -22.031499,57.323908 -20.875009,56.801673 -19.3125,56.78125 C -17.745323,56.795149 -16.599294,57.320523 -16.09375,58.25 C -15.588206,59.179477 -15.733087,60.172446 -15.9375,61.03125 C -16.132673,61.851233 -16.422891,62.568621 -16.53125,63.03125 C -14.760065,63.051788 -12.902915,62.990482 -9.5625,62.875 C -9.5147189,60.151146 -9.6105897,59.376072 -9.65625,56.75 C -9.6564348,56.739584 -9.6564348,56.729166 -9.65625,56.71875 C -9.6508262,56.482947 -9.7036731,56.55666 -9.625,56.625 C -9.5463269,56.69334 -9.5351805,56.648462 -9.71875,56.65625 C -10.085889,56.671827 -10.889078,56.921873 -11.75,57.125 C -12.610922,57.328127 -13.594654,57.54771 -14.5625,57.125 C -15.046423,56.913645 -15.474971,56.498901 -15.75,55.96875 C -16.025029,55.438599 -16.1625,54.803965 -16.1875,54.03125 C -16.188239,54.010423 -16.188239,53.989577 -16.1875,53.96875 C -16.150353,52.467981 -15.556052,51.383329 -14.625,50.9375 C -13.693948,50.491671 -12.742076,50.651209 -11.90625,50.8125 C -11.070424,50.973791 -10.279172,51.157702 -9.9375,51.15625 C -9.7666642,51.155524 -9.8037305,51.12054 -9.875,51.1875 C -9.9462695,51.25446 -9.8977668,51.320923 -9.90625,51.09375 C -10.029298,48.435525 -9.9101425,48.243348 -9.84375,46.78125 C -11.585029,46.761039 -13.875132,46.736507 -16.9375,46.8125 C -16.954961,46.814209 -16.981996,46.811265 -17,46.8125 C -17.23705,46.828762 -17.511001,46.792264 -17.78125,46.625 C -18.072024,46.445033 -18.255962,46.127266 -18.3125,45.875 C -18.425576,45.370468 -18.29621,45.03293 -18.1875,44.65625 C -17.97008,43.90289 -17.603363,43.057647 -17.375,42.25 C -17.146637,41.442353 -17.145575,40.760655 -17.28125,40.5 C -17.349088,40.369673 -17.423641,40.257446 -17.6875,40.15625 C -17.951359,40.055054 -18.400981,39.989395 -19.09375,40.03125 C -19.124978,40.032914 -19.156272,40.032914 -19.1875,40.03125 z " />
    </g>
  </g>
</svg>
