<?xml version="1.0" encoding="UTF-8" standalone="no"?>
<!-- Created with Inkscape (http://www.inkscape.org/) -->
<svg
   xmlns:dc="http://purl.org/dc/elements/1.1/"
   xmlns:cc="http://web.resource.org/cc/"
   xmlns:rdf="http://www.w3.org/1999/02/22-rdf-syntax-ns#"
   xmlns:svg="http://www.w3.org/2000/svg"
   xmlns="http://www.w3.org/2000/svg"
   xmlns:xlink="http://www.w3.org/1999/xlink"
   xmlns:sodipodi="http://sodipodi.sourceforge.net/DTD/sodipodi-0.dtd"
   xmlns:inkscape="http://www.inkscape.org/namespaces/inkscape"
   inkscape:export-ydpi="240.00000"
   inkscape:export-xdpi="240.00000"
   inkscape:export-filename="/home/jimmac/gfx/novell/pdes/trunk/docs/BIGmime-text.png"
   sodipodi:docname="category.svg"
   sodipodi:docbase="/home/max/dev/homebank/gfx/gnome-theme"
   inkscape:version="0.45"
   sodipodi:version="0.32"
   id="svg249"
   height="48.000000px"
   width="48.000000px"
   inkscape:output_extension="org.inkscape.output.svg.inkscape"
   sodipodi:modified="true">
  <defs
     id="defs3">
    <linearGradient
       inkscape:collect="always"
       id="linearGradient4171">
      <stop
         style="stop-color:#ffffff;stop-opacity:1;"
         offset="0"
         id="stop4173" />
      <stop
         style="stop-color:#ffffff;stop-opacity:0;"
         offset="1"
         id="stop4175" />
    </linearGradient>
    <linearGradient
       id="linearGradient5193">
      <stop
         style="stop-color:#75507b;stop-opacity:1;"
         offset="0"
         id="stop5195" />
      <stop
         style="stop-color:#ad7fa8;stop-opacity:1;"
         offset="1"
         id="stop5197" />
    </linearGradient>
    <linearGradient
       inkscape:collect="always"
       xlink:href="#linearGradient5193"
       id="linearGradient2344"
       gradientUnits="userSpaceOnUse"
       gradientTransform="matrix(0.8934685,0,0,0.5880995,42.217154,26.228199)"
       x1="42.426411"
       y1="58.076275"
       x2="32.350136"
       y2="16.35697" />
    <linearGradient
       inkscape:collect="always"
       xlink:href="#linearGradient4171"
       id="linearGradient4177"
       x1="-27.442137"
       y1="47.214706"
       x2="-9.6819067"
       y2="62.619846"
       gradientUnits="userSpaceOnUse" />
    <linearGradient
       inkscape:collect="always"
       xlink:href="#linearGradient4171"
       id="linearGradient5150"
       gradientUnits="userSpaceOnUse"
       x1="-27.442137"
       y1="47.214706"
       x2="-9.6819067"
       y2="62.619846" />
    <linearGradient
       inkscape:collect="always"
       xlink:href="#linearGradient5193"
       id="linearGradient5164"
       gradientUnits="userSpaceOnUse"
       gradientTransform="matrix(0.8934685,0,0,0.5880995,42.217154,26.228199)"
       x1="42.426411"
       y1="58.076275"
       x2="32.350136"
       y2="16.35697" />
    <linearGradient
       inkscape:collect="always"
       xlink:href="#linearGradient5193"
       id="linearGradient5166"
       gradientUnits="userSpaceOnUse"
       gradientTransform="matrix(0.8934685,0,0,0.5880995,42.217154,26.228199)"
       x1="42.426411"
       y1="58.076275"
       x2="32.350136"
       y2="16.35697" />
    <linearGradient
       inkscape:collect="always"
       xlink:href="#linearGradient4171"
       id="linearGradient5172"
       gradientUnits="userSpaceOnUse"
       x1="-27.442137"
       y1="47.214706"
       x2="-9.6819067"
       y2="62.619846" />
    <linearGradient
       inkscape:collect="always"
       xlink:href="#linearGradient4171"
       id="linearGradient5178"
       gradientUnits="userSpaceOnUse"
       x1="-27.442137"
       y1="47.214706"
       x2="-9.6819067"
       y2="62.619846" />
    <linearGradient
       inkscape:collect="always"
       xlink:href="#linearGradient4171"
       id="linearGradient5184"
       gradientUnits="userSpaceOnUse"
       x1="-27.442137"
       y1="47.214706"
       x2="-9.6819067"
       y2="62.619846" />
    <linearGradient
       inkscape:collect="always"
       xlink:href="#linearGradient4171"
       id="linearGradient5204"
       gradientUnits="userSpaceOnUse"
       x1="-27.442137"
       y1="47.214706"
       x2="-9.6819067"
       y2="62.619846" />
    <linearGradient
       inkscape:collect="always"
       xlink:href="#linearGradient4171"
       id="linearGradient5206"
       gradientUnits="userSpaceOnUse"
       x1="-27.442137"
       y1="47.214706"
       x2="-9.6819067"
       y2="62.619846" />
    <linearGradient
       inkscape:collect="always"
       xlink:href="#linearGradient5193"
       id="linearGradient5208"
       gradientUnits="userSpaceOnUse"
       gradientTransform="matrix(0.8934685,0,0,0.5880995,42.217154,26.228199)"
       x1="42.426411"
       y1="58.076275"
       x2="32.350136"
       y2="16.35697" />
    <linearGradient
       inkscape:collect="always"
       xlink:href="#linearGradient4171"
       id="linearGradient5210"
       gradientUnits="userSpaceOnUse"
       x1="-27.442137"
       y1="47.214706"
       x2="-9.6819067"
       y2="62.619846" />
    <linearGradient
       inkscape:collect="always"
       xlink:href="#linearGradient4171"
       id="linearGradient5212"
       gradientUnits="userSpaceOnUse"
       x1="-27.442137"
       y1="47.214706"
       x2="-9.6819067"
       y2="62.619846" />
  </defs>
  <sodipodi:namedview
     inkscape:window-y="25"
     inkscape:window-x="0"
     inkscape:window-height="689"
     inkscape:window-width="1024"
     inkscape:document-units="px"
     inkscape:grid-bbox="true"
     showgrid="false"
     inkscape:current-layer="layer5"
     inkscape:cy="1.5320444"
     inkscape:cx="-17.276074"
     inkscape:zoom="4.5137609"
     inkscape:pageshadow="2"
     inkscape:pageopacity="0.0"
     borderopacity="0.25490196"
     bordercolor="#666666"
     pagecolor="#ffffff"
     id="base"
     inkscape:showpageshadow="false" />
  <metadata
     id="metadata4">
    <rdf:RDF>
      <cc:Work
         rdf:about="">
        <dc:format>image/svg+xml</dc:format>
        <dc:type
           rdf:resource="http://purl.org/dc/dcmitype/StillImage" />
        <dc:title>HomeBank Category</dc:title>
        <dc:subject>
          <rdf:Bag />
        </dc:subject>
        <cc:license
           rdf:resource="http://creativecommons.org/licenses/GPL/2.0/" />
        <dc:creator>
          <cc:Agent>
            <dc:title>Maxime Doyen</dc:title>
          </cc:Agent>
        </dc:creator>
        <dc:source />
      </cc:Work>
      <cc:License
         rdf:about="http://creativecommons.org/licenses/GPL/2.0/">
        <cc:permits
           rdf:resource="http://web.resource.org/cc/Reproduction" />
        <cc:permits
           rdf:resource="http://web.resource.org/cc/Distribution" />
        <cc:requires
           rdf:resource="http://web.resource.org/cc/Notice" />
        <cc:permits
           rdf:resource="http://web.resource.org/cc/DerivativeWorks" />
        <cc:requires
           rdf:resource="http://web.resource.org/cc/ShareAlike" />
        <cc:requires
           rdf:resource="http://web.resource.org/cc/SourceCode" />
      </cc:License>
    </rdf:RDF>
  </metadata>
  <g
     inkscape:groupmode="layer"
     id="layer6"
     inkscape:label="Shadow" />
  <g
     style="display:inline"
     inkscape:groupmode="layer"
     inkscape:label="Base"
     id="layer1" />
  <g
     inkscape:groupmode="layer"
     id="layer5"
     inkscape:label="Text"
     style="display:inline">
    <g
       id="g5198"
       transform="translate(82.175314,-44.721374)">
      <path
         sodipodi:nodetypes="ccccccccccccccccc"
         id="path5180"
         d="M -73.095774,68.688466 C -70.978698,68.671018 -68.500917,68.669671 -66.384265,68.607411 C -64.282895,68.721078 -70.602184,61.641631 -63.783076,61.824496 C -57.582869,61.449897 -63.705096,68.827958 -61.657944,68.627653 C -58.162439,68.539251 -55.353884,68.559149 -53.609758,68.580611 C -53.671854,71.395649 -53.813799,70.553641 -53.665819,73.750465 C -53.553752,76.751545 -59.806329,71.381094 -59.937379,76.67556 C -59.760297,82.148917 -53.34321,76.345008 -53.414136,79.428592 C -53.362948,82.372596 -53.196785,82.49671 -53.308441,86.40817 C -57.829242,86.562818 -59.415853,86.631485 -61.590072,86.59591 C -63.644168,86.648271 -58.333382,80.393833 -63.94267,80.344084 C -69.533786,80.41716 -64.127655,86.605878 -66.655429,86.60914 C -68.968201,86.582627 -70.578538,86.834841 -72.705502,86.575765 C -72.745758,85.089946 -72.754927,81.511549 -72.73281,79.236229 C -72.706571,77.487153 -78.683863,82.680537 -78.923403,77.076913 C -79.021325,71.689768 -72.959041,76.78427 -73.024823,74.504622 C -73.134617,71.797781 -73.095774,71.118977 -73.095774,68.688466 z "
         style="opacity:1;color:#000000;fill:url(#linearGradient5208);fill-opacity:1;fill-rule:evenodd;stroke:#5c3566;stroke-width:0.9710086;stroke-linecap:butt;stroke-linejoin:miter;marker:none;marker-start:none;marker-mid:none;marker-end:none;stroke-miterlimit:4;stroke-dasharray:none;stroke-dashoffset:0;stroke-opacity:1;visibility:visible;display:inline;overflow:visible;enable-background:accumulate" />
      <path
         transform="translate(-44.629856,22.674847)"
         sodipodi:type="inkscape:offset"
         inkscape:radius="-0.88081747"
         inkscape:original="M -19.15625 39.15625 C -25.975358 38.973385 -19.648629 46.051168 -21.75 45.9375 C -23.866652 45.99976 -26.351674 45.982554 -28.46875 46 C -28.46875 48.430511 -28.516045 49.136908 -28.40625 51.84375 C -28.340468 54.123397 -34.37917 49.019107 -34.28125 54.40625 C -34.04171 60.009874 -28.06751 54.813424 -28.09375 56.5625 C -28.115867 58.83782 -28.102757 62.420432 -28.0625 63.90625 C -25.935536 64.165326 -24.344021 63.910988 -22.03125 63.9375 C -19.503476 63.934238 -24.903615 57.729328 -19.3125 57.65625 C -13.703212 57.705999 -19.022845 63.958612 -16.96875 63.90625 C -14.794531 63.941825 -13.208301 63.873399 -8.6875 63.71875 C -8.575844 59.80729 -8.7300617 59.694003 -8.78125 56.75 C -8.7103236 53.666417 -15.135418 59.473357 -15.3125 54 C -15.18145 48.705535 -8.9191824 54.063579 -9.03125 51.0625 C -9.1792294 47.865676 -9.0308467 48.721287 -8.96875 45.90625 C -10.712877 45.884788 -13.535745 45.849097 -17.03125 45.9375 C -19.078402 46.137805 -12.956044 38.78165 -19.15625 39.15625 z "
         xlink:href="#path2189"
         style="opacity:0.5;color:#000000;fill:none;fill-opacity:1;fill-rule:nonzero;stroke:url(#linearGradient5210);stroke-width:0.93168801;stroke-linecap:round;stroke-linejoin:round;marker:none;marker-start:none;marker-mid:none;marker-end:none;stroke-miterlimit:4;stroke-dasharray:none;stroke-dashoffset:0;stroke-opacity:1;visibility:visible;display:inline;overflow:visible"
         id="path5182"
         inkscape:href="#path2189"
         d="M -19.1875,40.03125 C -20.743718,39.989518 -21.228463,40.341332 -21.40625,40.625 C -21.584037,40.908668 -21.584171,41.504683 -21.375,42.28125 C -21.165829,43.057817 -20.782931,43.912507 -20.5625,44.65625 C -20.452284,45.028122 -20.353552,45.368113 -20.46875,45.875 C -20.526349,46.128444 -20.688979,46.444897 -20.96875,46.625 C -21.216704,46.78462 -21.489582,46.782882 -21.71875,46.78125 L -21.71875,46.8125 C -21.748493,46.813375 -21.782625,46.811656 -21.8125,46.8125 C -23.654973,46.86456 -25.715021,46.866212 -27.59375,46.875 C -27.601936,48.570471 -27.623952,49.527054 -27.53125,51.8125 C -27.51756,52.286914 -27.764243,52.900908 -28.21875,53.15625 C -28.673257,53.411592 -29.079015,53.360125 -29.4375,53.3125 C -30.154471,53.217251 -30.858122,52.956112 -31.53125,52.8125 C -32.204378,52.668888 -32.756629,52.691437 -32.96875,52.8125 C -33.180871,52.933563 -33.427786,53.190164 -33.40625,54.375 C -33.353285,55.614019 -33.046643,55.946967 -32.78125,56.09375 C -32.515857,56.240533 -31.986174,56.230906 -31.3125,56.0625 C -30.638826,55.894094 -29.908151,55.618033 -29.25,55.4375 C -28.920925,55.347233 -28.621108,55.239299 -28.15625,55.34375 C -27.923821,55.395975 -27.620076,55.556614 -27.4375,55.8125 C -27.254924,56.068386 -27.215255,56.329504 -27.21875,56.5625 C -27.238209,58.564346 -27.216955,61.350488 -27.1875,63.03125 C -25.581133,63.139327 -24.157123,63.051208 -22.1875,63.0625 C -22.231714,62.655928 -22.505385,61.848037 -22.6875,61 C -22.869615,60.151963 -23.031001,59.176092 -22.53125,58.25 C -22.031499,57.323908 -20.875009,56.801673 -19.3125,56.78125 C -17.745323,56.795149 -16.599294,57.320523 -16.09375,58.25 C -15.588206,59.179477 -15.733087,60.172446 -15.9375,61.03125 C -16.132673,61.851233 -16.422891,62.568621 -16.53125,63.03125 C -14.760065,63.051788 -12.902915,62.990482 -9.5625,62.875 C -9.5147189,60.151146 -9.6105897,59.376072 -9.65625,56.75 C -9.6564348,56.739584 -9.6564348,56.729166 -9.65625,56.71875 C -9.6508262,56.482947 -9.7036731,56.55666 -9.625,56.625 C -9.5463269,56.69334 -9.5351805,56.648462 -9.71875,56.65625 C -10.085889,56.671827 -10.889078,56.921873 -11.75,57.125 C -12.610922,57.328127 -13.594654,57.54771 -14.5625,57.125 C -15.046423,56.913645 -15.474971,56.498901 -15.75,55.96875 C -16.025029,55.438599 -16.1625,54.803965 -16.1875,54.03125 C -16.188239,54.010423 -16.188239,53.989577 -16.1875,53.96875 C -16.150353,52.467981 -15.556052,51.383329 -14.625,50.9375 C -13.693948,50.491671 -12.742076,50.651209 -11.90625,50.8125 C -11.070424,50.973791 -10.279172,51.157702 -9.9375,51.15625 C -9.7666642,51.155524 -9.8037305,51.12054 -9.875,51.1875 C -9.9462695,51.25446 -9.8977668,51.320923 -9.90625,51.09375 C -10.029298,48.435525 -9.9101425,48.243348 -9.84375,46.78125 C -11.585029,46.761039 -13.875132,46.736507 -16.9375,46.8125 C -16.954961,46.814209 -16.981996,46.811265 -17,46.8125 C -17.23705,46.828762 -17.511001,46.792264 -17.78125,46.625 C -18.072024,46.445033 -18.255962,46.127266 -18.3125,45.875 C -18.425576,45.370468 -18.29621,45.03293 -18.1875,44.65625 C -17.97008,43.90289 -17.603363,43.057647 -17.375,42.25 C -17.146637,41.442353 -17.145575,40.760655 -17.28125,40.5 C -17.349088,40.369673 -17.423641,40.257446 -17.6875,40.15625 C -17.951359,40.055054 -18.400981,39.989395 -19.09375,40.03125 C -19.124978,40.032914 -19.156272,40.032914 -19.1875,40.03125 z " />
    </g>
    <g
       id="g5194"
       transform="translate(83.896958,-19.901885)">
      <path
         style="opacity:1;color:#000000;fill:#8ae234;fill-opacity:1;fill-rule:evenodd;stroke:#4e9a06;stroke-width:0.93168801;stroke-linecap:round;stroke-linejoin:round;marker:none;marker-start:none;marker-mid:none;marker-end:none;stroke-miterlimit:4;stroke-dasharray:none;stroke-dashoffset:0;stroke-opacity:1;visibility:visible;display:inline;overflow:visible;enable-background:accumulate"
         d="M -72.375938,34.136319 C -70.258862,34.118871 -67.781081,34.117524 -65.664429,34.055264 C -63.563059,34.168931 -69.882348,27.089484 -63.06324,27.272349 C -56.863033,26.89775 -62.98526,34.275811 -60.938108,34.075506 C -57.442603,33.987104 -54.634048,34.007002 -52.889922,34.028464 C -52.952018,36.843502 -53.093963,36.001494 -52.945983,39.198318 C -52.833916,42.199398 -59.086493,36.828947 -59.217543,42.123413 C -59.040461,47.59677 -52.623374,41.792861 -52.6943,44.876445 C -52.643112,47.820449 -52.476949,47.944563 -52.588605,51.856023 C -57.109406,52.010671 -58.696017,52.079338 -60.870236,52.043763 C -62.924332,52.096124 -57.613546,45.841686 -63.222834,45.791937 C -68.81395,45.865013 -63.407819,52.053731 -65.935593,52.056993 C -68.248365,52.03048 -69.858702,52.282694 -71.985666,52.023618 C -72.025922,50.537799 -72.035091,46.959402 -72.012974,44.684082 C -71.986735,42.935006 -77.964027,48.12839 -78.203567,42.524766 C -78.301489,37.137621 -72.239205,42.232123 -72.304987,39.952475 C -72.414781,37.245634 -72.375938,36.56683 -72.375938,34.136319 z "
         id="path5174"
         sodipodi:nodetypes="ccccccccccccccccc" />
      <path
         d="M -19.1875,40.03125 C -20.743718,39.989518 -21.228463,40.341332 -21.40625,40.625 C -21.584037,40.908668 -21.584171,41.504683 -21.375,42.28125 C -21.165829,43.057817 -20.782931,43.912507 -20.5625,44.65625 C -20.452284,45.028122 -20.353552,45.368113 -20.46875,45.875 C -20.526349,46.128444 -20.688979,46.444897 -20.96875,46.625 C -21.216704,46.78462 -21.489582,46.782882 -21.71875,46.78125 L -21.71875,46.8125 C -21.748493,46.813375 -21.782625,46.811656 -21.8125,46.8125 C -23.654973,46.86456 -25.715021,46.866212 -27.59375,46.875 C -27.601936,48.570471 -27.623952,49.527054 -27.53125,51.8125 C -27.51756,52.286914 -27.764243,52.900908 -28.21875,53.15625 C -28.673257,53.411592 -29.079015,53.360125 -29.4375,53.3125 C -30.154471,53.217251 -30.858122,52.956112 -31.53125,52.8125 C -32.204378,52.668888 -32.756629,52.691437 -32.96875,52.8125 C -33.180871,52.933563 -33.427786,53.190164 -33.40625,54.375 C -33.353285,55.614019 -33.046643,55.946967 -32.78125,56.09375 C -32.515857,56.240533 -31.986174,56.230906 -31.3125,56.0625 C -30.638826,55.894094 -29.908151,55.618033 -29.25,55.4375 C -28.920925,55.347233 -28.621108,55.239299 -28.15625,55.34375 C -27.923821,55.395975 -27.620076,55.556614 -27.4375,55.8125 C -27.254924,56.068386 -27.215255,56.329504 -27.21875,56.5625 C -27.238209,58.564346 -27.216955,61.350488 -27.1875,63.03125 C -25.581133,63.139327 -24.157123,63.051208 -22.1875,63.0625 C -22.231714,62.655928 -22.505385,61.848037 -22.6875,61 C -22.869615,60.151963 -23.031001,59.176092 -22.53125,58.25 C -22.031499,57.323908 -20.875009,56.801673 -19.3125,56.78125 C -17.745323,56.795149 -16.599294,57.320523 -16.09375,58.25 C -15.588206,59.179477 -15.733087,60.172446 -15.9375,61.03125 C -16.132673,61.851233 -16.422891,62.568621 -16.53125,63.03125 C -14.760065,63.051788 -12.902915,62.990482 -9.5625,62.875 C -9.5147189,60.151146 -9.6105897,59.376072 -9.65625,56.75 C -9.6564348,56.739584 -9.6564348,56.729166 -9.65625,56.71875 C -9.6508262,56.482947 -9.7036731,56.55666 -9.625,56.625 C -9.5463269,56.69334 -9.5351805,56.648462 -9.71875,56.65625 C -10.085889,56.671827 -10.889078,56.921873 -11.75,57.125 C -12.610922,57.328127 -13.594654,57.54771 -14.5625,57.125 C -15.046423,56.913645 -15.474971,56.498901 -15.75,55.96875 C -16.025029,55.438599 -16.1625,54.803965 -16.1875,54.03125 C -16.188239,54.010423 -16.188239,53.989577 -16.1875,53.96875 C -16.150353,52.467981 -15.556052,51.383329 -14.625,50.9375 C -13.693948,50.491671 -12.742076,50.651209 -11.90625,50.8125 C -11.070424,50.973791 -10.279172,51.157702 -9.9375,51.15625 C -9.7666642,51.155524 -9.8037305,51.12054 -9.875,51.1875 C -9.9462695,51.25446 -9.8977668,51.320923 -9.90625,51.09375 C -10.029298,48.435525 -9.9101425,48.243348 -9.84375,46.78125 C -11.585029,46.761039 -13.875132,46.736507 -16.9375,46.8125 C -16.954961,46.814209 -16.981996,46.811265 -17,46.8125 C -17.23705,46.828762 -17.511001,46.792264 -17.78125,46.625 C -18.072024,46.445033 -18.255962,46.127266 -18.3125,45.875 C -18.425576,45.370468 -18.29621,45.03293 -18.1875,44.65625 C -17.97008,43.90289 -17.603363,43.057647 -17.375,42.25 C -17.146637,41.442353 -17.145575,40.760655 -17.28125,40.5 C -17.349088,40.369673 -17.423641,40.257446 -17.6875,40.15625 C -17.951359,40.055054 -18.400981,39.989395 -19.09375,40.03125 C -19.124978,40.032914 -19.156272,40.032914 -19.1875,40.03125 z "
         inkscape:href="#path2189"
         id="path5176"
         style="opacity:0.5;color:#000000;fill:none;fill-opacity:1;fill-rule:nonzero;stroke:url(#linearGradient5206);stroke-width:0.93168801;stroke-linecap:round;stroke-linejoin:round;marker:none;marker-start:none;marker-mid:none;marker-end:none;stroke-miterlimit:4;stroke-dasharray:none;stroke-dashoffset:0;stroke-opacity:1;visibility:visible;display:inline;overflow:visible"
         xlink:href="#path2189"
         inkscape:original="M -19.15625 39.15625 C -25.975358 38.973385 -19.648629 46.051168 -21.75 45.9375 C -23.866652 45.99976 -26.351674 45.982554 -28.46875 46 C -28.46875 48.430511 -28.516045 49.136908 -28.40625 51.84375 C -28.340468 54.123397 -34.37917 49.019107 -34.28125 54.40625 C -34.04171 60.009874 -28.06751 54.813424 -28.09375 56.5625 C -28.115867 58.83782 -28.102757 62.420432 -28.0625 63.90625 C -25.935536 64.165326 -24.344021 63.910988 -22.03125 63.9375 C -19.503476 63.934238 -24.903615 57.729328 -19.3125 57.65625 C -13.703212 57.705999 -19.022845 63.958612 -16.96875 63.90625 C -14.794531 63.941825 -13.208301 63.873399 -8.6875 63.71875 C -8.575844 59.80729 -8.7300617 59.694003 -8.78125 56.75 C -8.7103236 53.666417 -15.135418 59.473357 -15.3125 54 C -15.18145 48.705535 -8.9191824 54.063579 -9.03125 51.0625 C -9.1792294 47.865676 -9.0308467 48.721287 -8.96875 45.90625 C -10.712877 45.884788 -13.535745 45.849097 -17.03125 45.9375 C -19.078402 46.137805 -12.956044 38.78165 -19.15625 39.15625 z "
         inkscape:radius="-0.88081747"
         sodipodi:type="inkscape:offset"
         transform="translate(-43.91002,-11.8773)" />
    </g>
    <g
       id="g5190"
       transform="translate(91.783263,9.5992873)">
      <path
         sodipodi:nodetypes="ccccccccccccccccc"
         id="path5168"
         d="M -72.01602,2.1035996 C -69.898944,2.0861516 -67.421163,2.0848046 -65.304511,2.0225446 C -63.203141,2.1362116 -69.52243,-4.9432354 -62.703322,-4.7603704 C -56.503115,-5.1349694 -62.625342,2.2430916 -60.57819,2.0427866 C -57.082685,1.9543846 -54.27413,1.9742826 -52.530004,1.9957446 C -52.5921,4.8107826 -52.734045,3.9687746 -52.586065,7.1655986 C -52.473998,10.166678 -58.726575,4.7962276 -58.857625,10.090693 C -58.680543,15.56405 -52.263456,9.7601416 -52.334382,12.843725 C -52.283194,15.787729 -52.117031,15.911843 -52.228687,19.823303 C -56.749488,19.977951 -58.336099,20.046618 -60.510318,20.011043 C -62.564414,20.063404 -57.253628,13.808966 -62.862916,13.759217 C -68.454032,13.832293 -63.047901,20.021011 -65.575675,20.024273 C -67.888447,19.99776 -69.498784,20.249974 -71.625748,19.990898 C -71.666004,18.505079 -71.675173,14.926682 -71.653056,12.651362 C -71.626817,10.902286 -77.604109,16.09567 -77.843649,10.492046 C -77.941571,5.1049016 -71.879287,10.199403 -71.945069,7.9197556 C -72.054863,5.2129146 -72.01602,4.5341106 -72.01602,2.1035996 z "
         style="opacity:1;color:#000000;fill:#fce94f;fill-opacity:1;fill-rule:evenodd;stroke:#c4a000;stroke-width:0.93168801;stroke-linecap:round;stroke-linejoin:round;marker:none;marker-start:none;marker-mid:none;marker-end:none;stroke-miterlimit:4;stroke-dasharray:none;stroke-dashoffset:0;stroke-opacity:1;visibility:visible;display:inline;overflow:visible;enable-background:accumulate" />
      <path
         transform="translate(-43.550102,-43.91002)"
         sodipodi:type="inkscape:offset"
         inkscape:radius="-0.88081747"
         inkscape:original="M -19.15625 39.15625 C -25.975358 38.973385 -19.648629 46.051168 -21.75 45.9375 C -23.866652 45.99976 -26.351674 45.982554 -28.46875 46 C -28.46875 48.430511 -28.516045 49.136908 -28.40625 51.84375 C -28.340468 54.123397 -34.37917 49.019107 -34.28125 54.40625 C -34.04171 60.009874 -28.06751 54.813424 -28.09375 56.5625 C -28.115867 58.83782 -28.102757 62.420432 -28.0625 63.90625 C -25.935536 64.165326 -24.344021 63.910988 -22.03125 63.9375 C -19.503476 63.934238 -24.903615 57.729328 -19.3125 57.65625 C -13.703212 57.705999 -19.022845 63.958612 -16.96875 63.90625 C -14.794531 63.941825 -13.208301 63.873399 -8.6875 63.71875 C -8.575844 59.80729 -8.7300617 59.694003 -8.78125 56.75 C -8.7103236 53.666417 -15.135418 59.473357 -15.3125 54 C -15.18145 48.705535 -8.9191824 54.063579 -9.03125 51.0625 C -9.1792294 47.865676 -9.0308467 48.721287 -8.96875 45.90625 C -10.712877 45.884788 -13.535745 45.849097 -17.03125 45.9375 C -19.078402 46.137805 -12.956044 38.78165 -19.15625 39.15625 z "
         xlink:href="#path2189"
         style="opacity:0.5;color:#000000;fill:none;fill-opacity:1;fill-rule:nonzero;stroke:url(#linearGradient5204);stroke-width:0.93168801;stroke-linecap:round;stroke-linejoin:round;marker:none;marker-start:none;marker-mid:none;marker-end:none;stroke-miterlimit:4;stroke-dasharray:none;stroke-dashoffset:0;stroke-opacity:1;visibility:visible;display:inline;overflow:visible"
         id="path5170"
         inkscape:href="#path2189"
         d="M -19.1875,40.03125 C -20.743718,39.989518 -21.228463,40.341332 -21.40625,40.625 C -21.584037,40.908668 -21.584171,41.504683 -21.375,42.28125 C -21.165829,43.057817 -20.782931,43.912507 -20.5625,44.65625 C -20.452284,45.028122 -20.353552,45.368113 -20.46875,45.875 C -20.526349,46.128444 -20.688979,46.444897 -20.96875,46.625 C -21.216704,46.78462 -21.489582,46.782882 -21.71875,46.78125 L -21.71875,46.8125 C -21.748493,46.813375 -21.782625,46.811656 -21.8125,46.8125 C -23.654973,46.86456 -25.715021,46.866212 -27.59375,46.875 C -27.601936,48.570471 -27.623952,49.527054 -27.53125,51.8125 C -27.51756,52.286914 -27.764243,52.900908 -28.21875,53.15625 C -28.673257,53.411592 -29.079015,53.360125 -29.4375,53.3125 C -30.154471,53.217251 -30.858122,52.956112 -31.53125,52.8125 C -32.204378,52.668888 -32.756629,52.691437 -32.96875,52.8125 C -33.180871,52.933563 -33.427786,53.190164 -33.40625,54.375 C -33.353285,55.614019 -33.046643,55.946967 -32.78125,56.09375 C -32.515857,56.240533 -31.986174,56.230906 -31.3125,56.0625 C -30.638826,55.894094 -29.908151,55.618033 -29.25,55.4375 C -28.920925,55.347233 -28.621108,55.239299 -28.15625,55.34375 C -27.923821,55.395975 -27.620076,55.556614 -27.4375,55.8125 C -27.254924,56.068386 -27.215255,56.329504 -27.21875,56.5625 C -27.238209,58.564346 -27.216955,61.350488 -27.1875,63.03125 C -25.581133,63.139327 -24.157123,63.051208 -22.1875,63.0625 C -22.231714,62.655928 -22.505385,61.848037 -22.6875,61 C -22.869615,60.151963 -23.031001,59.176092 -22.53125,58.25 C -22.031499,57.323908 -20.875009,56.801673 -19.3125,56.78125 C -17.745323,56.795149 -16.599294,57.320523 -16.09375,58.25 C -15.588206,59.179477 -15.733087,60.172446 -15.9375,61.03125 C -16.132673,61.851233 -16.422891,62.568621 -16.53125,63.03125 C -14.760065,63.051788 -12.902915,62.990482 -9.5625,62.875 C -9.5147189,60.151146 -9.6105897,59.376072 -9.65625,56.75 C -9.6564348,56.739584 -9.6564348,56.729166 -9.65625,56.71875 C -9.6508262,56.482947 -9.7036731,56.55666 -9.625,56.625 C -9.5463269,56.69334 -9.5351805,56.648462 -9.71875,56.65625 C -10.085889,56.671827 -10.889078,56.921873 -11.75,57.125 C -12.610922,57.328127 -13.594654,57.54771 -14.5625,57.125 C -15.046423,56.913645 -15.474971,56.498901 -15.75,55.96875 C -16.025029,55.438599 -16.1625,54.803965 -16.1875,54.03125 C -16.188239,54.010423 -16.188239,53.989577 -16.1875,53.96875 C -16.150353,52.467981 -15.556052,51.383329 -14.625,50.9375 C -13.693948,50.491671 -12.742076,50.651209 -11.90625,50.8125 C -11.070424,50.973791 -10.279172,51.157702 -9.9375,51.15625 C -9.7666642,51.155524 -9.8037305,51.12054 -9.875,51.1875 C -9.9462695,51.25446 -9.8977668,51.320923 -9.90625,51.09375 C -10.029298,48.435525 -9.9101425,48.243348 -9.84375,46.78125 C -11.585029,46.761039 -13.875132,46.736507 -16.9375,46.8125 C -16.954961,46.814209 -16.981996,46.811265 -17,46.8125 C -17.23705,46.828762 -17.511001,46.792264 -17.78125,46.625 C -18.072024,46.445033 -18.255962,46.127266 -18.3125,45.875 C -18.425576,45.370468 -18.29621,45.03293 -18.1875,44.65625 C -17.97008,43.90289 -17.603363,43.057647 -17.375,42.25 C -17.146637,41.442353 -17.145575,40.760655 -17.28125,40.5 C -17.349088,40.369673 -17.423641,40.257446 -17.6875,40.15625 C -17.951359,40.055054 -18.400981,39.989395 -19.09375,40.03125 C -19.124978,40.032914 -19.156272,40.032914 -19.1875,40.03125 z " />
    </g>
    <g
       id="g5186"
       transform="translate(53.390028,-20.844052)">
      <path
         style="color:#000000;fill:#729fcf;fill-opacity:1;fill-rule:nonzero;stroke:#204a87;stroke-width:0.93168801;stroke-linecap:round;stroke-linejoin:round;marker:none;marker-start:none;marker-mid:none;marker-end:none;stroke-miterlimit:4;stroke-dasharray:none;stroke-dashoffset:0;stroke-opacity:1;visibility:visible;display:inline;overflow:visible"
         d="M -28.465918,46.01362 C -26.348842,45.996172 -23.871061,45.994825 -21.754409,45.932565 C -19.653039,46.046232 -25.972328,38.966785 -19.15322,39.14965 C -12.953013,38.775051 -19.07524,46.153112 -17.028088,45.952807 C -13.532583,45.864405 -10.724028,45.884303 -8.9799015,45.905765 C -9.041998,48.720803 -9.1839424,47.878795 -9.035963,51.075619 C -8.9238955,54.076698 -15.176473,48.706248 -15.307523,54.000713 C -15.130441,59.47407 -8.7133534,53.670162 -8.7842798,56.753745 C -8.7330915,59.697749 -8.5669286,59.821863 -8.6785846,63.733323 C -13.199386,63.887971 -14.785997,63.956638 -16.960216,63.921063 C -19.014312,63.973424 -13.703526,57.718986 -19.312814,57.669237 C -24.90393,57.742313 -19.497799,63.931031 -22.025573,63.934293 C -24.338345,63.90778 -25.948682,64.159994 -28.075646,63.900918 C -28.115902,62.415099 -28.125071,58.836702 -28.102954,56.561382 C -28.076715,54.812306 -34.054007,60.00569 -34.293547,54.402066 C -34.391469,49.014922 -28.329185,54.109423 -28.394967,51.829776 C -28.504761,49.122935 -28.465918,48.444131 -28.465918,46.01362 z "
         id="path2189"
         sodipodi:nodetypes="ccccccccccccccccc" />
      <path
         d="M -19.1875,40.03125 C -20.743718,39.989518 -21.228463,40.341332 -21.40625,40.625 C -21.584037,40.908668 -21.584171,41.504683 -21.375,42.28125 C -21.165829,43.057817 -20.782931,43.912507 -20.5625,44.65625 C -20.452284,45.028122 -20.353552,45.368113 -20.46875,45.875 C -20.526349,46.128444 -20.688979,46.444897 -20.96875,46.625 C -21.216704,46.78462 -21.489582,46.782882 -21.71875,46.78125 L -21.71875,46.8125 C -21.748493,46.813375 -21.782625,46.811656 -21.8125,46.8125 C -23.654973,46.86456 -25.715021,46.866212 -27.59375,46.875 C -27.601936,48.570471 -27.623952,49.527054 -27.53125,51.8125 C -27.51756,52.286914 -27.764243,52.900908 -28.21875,53.15625 C -28.673257,53.411592 -29.079015,53.360125 -29.4375,53.3125 C -30.154471,53.217251 -30.858122,52.956112 -31.53125,52.8125 C -32.204378,52.668888 -32.756629,52.691437 -32.96875,52.8125 C -33.180871,52.933563 -33.427786,53.190164 -33.40625,54.375 C -33.353285,55.614019 -33.046643,55.946967 -32.78125,56.09375 C -32.515857,56.240533 -31.986174,56.230906 -31.3125,56.0625 C -30.638826,55.894094 -29.908151,55.618033 -29.25,55.4375 C -28.920925,55.347233 -28.621108,55.239299 -28.15625,55.34375 C -27.923821,55.395975 -27.620076,55.556614 -27.4375,55.8125 C -27.254924,56.068386 -27.215255,56.329504 -27.21875,56.5625 C -27.238209,58.564346 -27.216955,61.350488 -27.1875,63.03125 C -25.581133,63.139327 -24.157123,63.051208 -22.1875,63.0625 C -22.231714,62.655928 -22.505385,61.848037 -22.6875,61 C -22.869615,60.151963 -23.031001,59.176092 -22.53125,58.25 C -22.031499,57.323908 -20.875009,56.801673 -19.3125,56.78125 C -17.745323,56.795149 -16.599294,57.320523 -16.09375,58.25 C -15.588206,59.179477 -15.733087,60.172446 -15.9375,61.03125 C -16.132673,61.851233 -16.422891,62.568621 -16.53125,63.03125 C -14.760065,63.051788 -12.902915,62.990482 -9.5625,62.875 C -9.5147189,60.151146 -9.6105897,59.376072 -9.65625,56.75 C -9.6564348,56.739584 -9.6564348,56.729166 -9.65625,56.71875 C -9.6508262,56.482947 -9.7036731,56.55666 -9.625,56.625 C -9.5463269,56.69334 -9.5351805,56.648462 -9.71875,56.65625 C -10.085889,56.671827 -10.889078,56.921873 -11.75,57.125 C -12.610922,57.328127 -13.594654,57.54771 -14.5625,57.125 C -15.046423,56.913645 -15.474971,56.498901 -15.75,55.96875 C -16.025029,55.438599 -16.1625,54.803965 -16.1875,54.03125 C -16.188239,54.010423 -16.188239,53.989577 -16.1875,53.96875 C -16.150353,52.467981 -15.556052,51.383329 -14.625,50.9375 C -13.693948,50.491671 -12.742076,50.651209 -11.90625,50.8125 C -11.070424,50.973791 -10.279172,51.157702 -9.9375,51.15625 C -9.7666642,51.155524 -9.8037305,51.12054 -9.875,51.1875 C -9.9462695,51.25446 -9.8977668,51.320923 -9.90625,51.09375 C -10.029298,48.435525 -9.9101425,48.243348 -9.84375,46.78125 C -11.585029,46.761039 -13.875132,46.736507 -16.9375,46.8125 C -16.954961,46.814209 -16.981996,46.811265 -17,46.8125 C -17.23705,46.828762 -17.511001,46.792264 -17.78125,46.625 C -18.072024,46.445033 -18.255962,46.127266 -18.3125,45.875 C -18.425576,45.370468 -18.29621,45.03293 -18.1875,44.65625 C -17.97008,43.90289 -17.603363,43.057647 -17.375,42.25 C -17.146637,41.442353 -17.145575,40.760655 -17.28125,40.5 C -17.349088,40.369673 -17.423641,40.257446 -17.6875,40.15625 C -17.951359,40.055054 -18.400981,39.989395 -19.09375,40.03125 C -19.124978,40.032914 -19.156272,40.032914 -19.1875,40.03125 z "
         inkscape:href="#path2189"
         id="path3192"
         style="opacity:0.5;color:#000000;fill:none;fill-opacity:1;fill-rule:nonzero;stroke:url(#linearGradient5212);stroke-width:0.93168801;stroke-linecap:round;stroke-linejoin:round;marker:none;marker-start:none;marker-mid:none;marker-end:none;stroke-miterlimit:4;stroke-dasharray:none;stroke-dashoffset:0;stroke-opacity:1;visibility:visible;display:inline;overflow:visible"
         xlink:href="#path2189"
         inkscape:original="M -19.15625 39.15625 C -25.975358 38.973385 -19.648629 46.051168 -21.75 45.9375 C -23.866652 45.99976 -26.351674 45.982554 -28.46875 46 C -28.46875 48.430511 -28.516045 49.136908 -28.40625 51.84375 C -28.340468 54.123397 -34.37917 49.019107 -34.28125 54.40625 C -34.04171 60.009874 -28.06751 54.813424 -28.09375 56.5625 C -28.115867 58.83782 -28.102757 62.420432 -28.0625 63.90625 C -25.935536 64.165326 -24.344021 63.910988 -22.03125 63.9375 C -19.503476 63.934238 -24.903615 57.729328 -19.3125 57.65625 C -13.703212 57.705999 -19.022845 63.958612 -16.96875 63.90625 C -14.794531 63.941825 -13.208301 63.873399 -8.6875 63.71875 C -8.575844 59.80729 -8.7300617 59.694003 -8.78125 56.75 C -8.7103236 53.666417 -15.135418 59.473357 -15.3125 54 C -15.18145 48.705535 -8.9191824 54.063579 -9.03125 51.0625 C -9.1792294 47.865676 -9.0308467 48.721287 -8.96875 45.90625 C -10.712877 45.884788 -13.535745 45.849097 -17.03125 45.9375 C -19.078402 46.137805 -12.956044 38.78165 -19.15625 39.15625 z "
         inkscape:radius="-0.88081747"
         sodipodi:type="inkscape:offset" />
    </g>
    <g
       style="display:inline"
       inkscape:label="Base"
       id="g2395"
       transform="translate(24.840026,26.647263)" />
  </g>
</svg>
