<?xml version="1.0" encoding="UTF-8" standalone="no"?>
<!-- Created with Inkscape (http://www.inkscape.org/) -->
<svg
   xmlns:dc="http://purl.org/dc/elements/1.1/"
   xmlns:cc="http://web.resource.org/cc/"
   xmlns:rdf="http://www.w3.org/1999/02/22-rdf-syntax-ns#"
   xmlns:svg="http://www.w3.org/2000/svg"
   xmlns="http://www.w3.org/2000/svg"
   xmlns:xlink="http://www.w3.org/1999/xlink"
   xmlns:sodipodi="http://sodipodi.sourceforge.net/DTD/sodipodi-0.dtd"
   xmlns:inkscape="http://www.inkscape.org/namespaces/inkscape"
   width="48px"
   height="48px"
   id="svg2916"
   sodipodi:version="0.32"
   inkscape:version="0.45"
   sodipodi:docname="creditcard.svg"
   sodipodi:docbase="/home/max/dev/homebank/gfx/gnome-theme"
   inkscape:output_extension="org.inkscape.output.svg.inkscape"
   sodipodi:modified="true">
  <defs
     id="defs2918">
    <linearGradient
       inkscape:collect="always"
       id="linearGradient3245">
      <stop
         style="stop-color:#eeeeec;stop-opacity:1;"
         offset="0"
         id="stop3247" />
      <stop
         style="stop-color:#eeeeec;stop-opacity:0;"
         offset="1"
         id="stop3249" />
    </linearGradient>
    <radialGradient
       inkscape:collect="always"
       xlink:href="#linearGradient5060"
       id="radialGradient2386"
       gradientUnits="userSpaceOnUse"
       gradientTransform="matrix(-2.774389,0,0,1.969706,112.7623,-872.8854)"
       cx="605.71429"
       cy="486.64789"
       fx="605.71429"
       fy="486.64789"
       r="117.14286" />
    <linearGradient
       id="linearGradient5060"
       inkscape:collect="always">
      <stop
         id="stop5062"
         offset="0"
         style="stop-color:black;stop-opacity:1;" />
      <stop
         id="stop5064"
         offset="1"
         style="stop-color:black;stop-opacity:0;" />
    </linearGradient>
    <radialGradient
       inkscape:collect="always"
       xlink:href="#linearGradient5060"
       id="radialGradient2384"
       gradientUnits="userSpaceOnUse"
       gradientTransform="matrix(2.774389,0,0,1.969706,-1891.633,-872.8854)"
       cx="605.71429"
       cy="486.64789"
       fx="605.71429"
       fy="486.64789"
       r="117.14286" />
    <linearGradient
       id="linearGradient5048">
      <stop
         id="stop5050"
         offset="0"
         style="stop-color:black;stop-opacity:0;" />
      <stop
         style="stop-color:black;stop-opacity:1;"
         offset="0.5"
         id="stop5056" />
      <stop
         id="stop5052"
         offset="1"
         style="stop-color:black;stop-opacity:0;" />
    </linearGradient>
    <linearGradient
       inkscape:collect="always"
       xlink:href="#linearGradient5048"
       id="linearGradient2382"
       gradientUnits="userSpaceOnUse"
       gradientTransform="matrix(2.774389,0,0,1.969706,-1892.179,-872.8854)"
       x1="302.85715"
       y1="366.64789"
       x2="302.85715"
       y2="609.50507" />
    <linearGradient
       id="linearGradient4735">
      <stop
         style="stop-color:white;stop-opacity:1;"
         offset="0"
         id="stop4737" />
      <stop
         style="stop-color:#ffffff;stop-opacity:0.34104046;"
         offset="1"
         id="stop4739" />
    </linearGradient>
    <linearGradient
       inkscape:collect="always"
       xlink:href="#linearGradient4735"
       id="linearGradient6793"
       gradientUnits="userSpaceOnUse"
       x1="36.988605"
       y1="-47.160614"
       x2="87.178139"
       y2="-18.86479" />
    <linearGradient
       inkscape:collect="always"
       xlink:href="#linearGradient2788"
       id="linearGradient6791"
       gradientUnits="userSpaceOnUse"
       gradientTransform="matrix(1.3812302,0,0,1.2325932,28.908058,-61.907369)"
       x1="11.511479"
       y1="0.75951481"
       x2="31.5"
       y2="36.625" />
    <clipPath
       clipPathUnits="userSpaceOnUse"
       id="clipPath2922">
      <rect
         style="opacity:0.33000004;color:#000000;fill:#cf9595;fill-opacity:1;fill-rule:evenodd;stroke:none;stroke-width:1;stroke-linecap:butt;stroke-linejoin:bevel;marker:none;marker-start:none;marker-mid:none;marker-end:none;stroke-miterlimit:4;stroke-dasharray:none;stroke-dashoffset:0;stroke-opacity:1;visibility:visible;display:inline;overflow:visible;enable-background:accumulate"
         id="rect2924"
         width="31.184975"
         height="31.184975"
         x="13.815027"
         y="8.4075136" />
    </clipPath>
    <linearGradient
       id="linearGradient2788">
      <stop
         style="stop-color:#729fcf;stop-opacity:1;"
         offset="0"
         id="stop2790" />
      <stop
         style="stop-color:#204a87;stop-opacity:1;"
         offset="1"
         id="stop2792" />
    </linearGradient>
    <linearGradient
       y2="36.625"
       x2="31.5"
       y1="0.75951481"
       x1="11.511479"
       gradientTransform="matrix(0.9789461,0,0,0.8735997,0.7184213,2.4876197)"
       gradientUnits="userSpaceOnUse"
       id="linearGradient2740"
       xlink:href="#linearGradient2788"
       inkscape:collect="always" />
    <linearGradient
       id="linearGradient4585">
      <stop
         style="stop-color:#9e9e9e;stop-opacity:1;"
         offset="0"
         id="stop4587" />
      <stop
         style="stop-color:#dddddd;stop-opacity:0;"
         offset="1"
         id="stop4589" />
    </linearGradient>
    <linearGradient
       gradientTransform="matrix(1.0499996,0,0,1.0499996,2.9999979,-5.9249812)"
       y2="34.608616"
       x2="8.4885712"
       y1="18.345161"
       x1="9.117774"
       gradientUnits="userSpaceOnUse"
       id="linearGradient2787"
       xlink:href="#linearGradient4585"
       inkscape:collect="always" />
    <linearGradient
       id="linearGradient6732">
      <stop
         style="stop-color:#ffffff;stop-opacity:1;"
         offset="0"
         id="stop6734" />
      <stop
         style="stop-color:#dddddd;stop-opacity:1;"
         offset="1"
         id="stop6736" />
    </linearGradient>
    <linearGradient
       y2="36.625"
       x2="31.5"
       y1="0.75951481"
       x1="11.511479"
       gradientTransform="matrix(0.9009469,0,0,0.8399997,2.0211683,3.8400151)"
       gradientUnits="userSpaceOnUse"
       id="linearGradient2810"
       xlink:href="#linearGradient6732"
       inkscape:collect="always" />
    <linearGradient
       id="linearGradient3702">
      <stop
         style="stop-color:black;stop-opacity:0;"
         offset="0"
         id="stop3704" />
      <stop
         id="stop3710"
         offset="0.5"
         style="stop-color:black;stop-opacity:1;" />
      <stop
         style="stop-color:black;stop-opacity:0;"
         offset="1"
         id="stop3706" />
    </linearGradient>
    <linearGradient
       y2="39.999443"
       x2="25.058096"
       y1="47.027729"
       x1="25.058096"
       gradientUnits="userSpaceOnUse"
       id="linearGradient2830"
       xlink:href="#linearGradient3702"
       inkscape:collect="always" />
    <radialGradient
       r="2.5"
       fy="43.5"
       fx="4.9929786"
       cy="43.5"
       cx="4.9929786"
       gradientTransform="matrix(2.003784,0,0,1.4,-20.01187,-104.4)"
       gradientUnits="userSpaceOnUse"
       id="radialGradient2828"
       xlink:href="#linearGradient3688"
       inkscape:collect="always" />
    <linearGradient
       inkscape:collect="always"
       id="linearGradient3688">
      <stop
         style="stop-color:black;stop-opacity:1;"
         offset="0"
         id="stop3690" />
      <stop
         style="stop-color:black;stop-opacity:0;"
         offset="1"
         id="stop3692" />
    </linearGradient>
    <radialGradient
       r="2.5"
       fy="43.5"
       fx="4.9929786"
       cy="43.5"
       cx="4.9929786"
       gradientTransform="matrix(2.003784,0,0,1.4,27.98813,-17.4)"
       gradientUnits="userSpaceOnUse"
       id="radialGradient2826"
       xlink:href="#linearGradient3688"
       inkscape:collect="always" />
    <clipPath
       clipPathUnits="userSpaceOnUse"
       id="clipPath8547">
      <rect
         style="opacity:0.33000004;color:#000000;fill:#cf9595;fill-opacity:1;fill-rule:evenodd;stroke:none;stroke-width:1;stroke-linecap:butt;stroke-linejoin:bevel;marker:none;marker-start:none;marker-mid:none;marker-end:none;stroke-miterlimit:4;stroke-dasharray:none;stroke-dashoffset:0;stroke-opacity:1;visibility:visible;display:inline;overflow:visible;enable-background:accumulate"
         id="rect8549"
         width="29.359037"
         height="28.349976"
         x="15.515587"
         y="9.2896271" />
    </clipPath>
    <radialGradient
       inkscape:collect="always"
       xlink:href="#linearGradient3688"
       id="radialGradient3878"
       gradientUnits="userSpaceOnUse"
       gradientTransform="matrix(2.003784,0,0,1.4,27.98813,-17.4)"
       cx="4.9929786"
       cy="43.5"
       fx="4.9929786"
       fy="43.5"
       r="2.5" />
    <radialGradient
       inkscape:collect="always"
       xlink:href="#linearGradient3688"
       id="radialGradient3880"
       gradientUnits="userSpaceOnUse"
       gradientTransform="matrix(2.003784,0,0,1.4,-20.01187,-104.4)"
       cx="4.9929786"
       cy="43.5"
       fx="4.9929786"
       fy="43.5"
       r="2.5" />
    <linearGradient
       inkscape:collect="always"
       xlink:href="#linearGradient3702"
       id="linearGradient3882"
       gradientUnits="userSpaceOnUse"
       x1="25.058096"
       y1="47.027729"
       x2="25.058096"
       y2="39.999443" />
    <linearGradient
       inkscape:collect="always"
       xlink:href="#linearGradient6732"
       id="linearGradient3884"
       gradientUnits="userSpaceOnUse"
       gradientTransform="matrix(0.9009469,0,0,0.8399997,2.0211683,3.8400151)"
       x1="11.511479"
       y1="0.75951481"
       x2="31.5"
       y2="36.625" />
    <linearGradient
       inkscape:collect="always"
       xlink:href="#linearGradient4585"
       id="linearGradient3886"
       gradientUnits="userSpaceOnUse"
       gradientTransform="matrix(1.0499996,0,0,1.0499996,2.9999979,-5.9249812)"
       x1="9.117774"
       y1="18.345161"
       x2="8.4885712"
       y2="34.608616" />
    <linearGradient
       inkscape:collect="always"
       xlink:href="#linearGradient2788"
       id="linearGradient3888"
       gradientUnits="userSpaceOnUse"
       gradientTransform="matrix(0.9789461,0,0,0.8735997,0.7184213,2.4876197)"
       x1="11.511479"
       y1="0.75951481"
       x2="31.5"
       y2="36.625" />
    <linearGradient
       inkscape:collect="always"
       xlink:href="#linearGradient2788"
       id="linearGradient7231"
       gradientUnits="userSpaceOnUse"
       gradientTransform="matrix(1.3812302,0,0,1.2325932,-29.290222,-38.612743)"
       x1="11.511479"
       y1="0.75951481"
       x2="31.5"
       y2="36.625" />
    <linearGradient
       inkscape:collect="always"
       xlink:href="#linearGradient4735"
       id="linearGradient7234"
       gradientUnits="userSpaceOnUse"
       x1="36.988605"
       y1="-47.160614"
       x2="87.178139"
       y2="-18.86479" />
    <linearGradient
       inkscape:collect="always"
       xlink:href="#linearGradient2788"
       id="linearGradient3228"
       gradientUnits="userSpaceOnUse"
       gradientTransform="matrix(1.3812302,0,0,1.2325932,-11.397706,-5.295176)"
       x1="23.812548"
       y1="32.509449"
       x2="23.812548"
       y2="1.3076588" />
    <linearGradient
       inkscape:collect="always"
       xlink:href="#linearGradient4735"
       id="linearGradient4224"
       x1="9.0969505"
       y1="13.276092"
       x2="40.677906"
       y2="34.569576"
       gradientUnits="userSpaceOnUse" />
    <linearGradient
       inkscape:collect="always"
       xlink:href="#linearGradient2788"
       id="linearGradient2227"
       gradientUnits="userSpaceOnUse"
       gradientTransform="matrix(1.42756,0,0,1.2739373,-16.500063,-6.1235933)"
       x1="23.812548"
       y1="32.509449"
       x2="23.812548"
       y2="1.3076588" />
    <linearGradient
       inkscape:collect="always"
       xlink:href="#linearGradient4735"
       id="linearGradient2236"
       gradientUnits="userSpaceOnUse"
       x1="9.0969505"
       y1="13.276092"
       x2="40.677906"
       y2="34.569576" />
    <radialGradient
       inkscape:collect="always"
       xlink:href="#linearGradient2788"
       id="radialGradient3218"
       cx="19.034836"
       cy="28.227425"
       fx="19.034836"
       fy="28.227425"
       r="28.800295"
       gradientTransform="matrix(2.0835401,-0.7677022,0.4641047,1.2595778,-30.302978,7.083103)"
       gradientUnits="userSpaceOnUse" />
    <radialGradient
       inkscape:collect="always"
       xlink:href="#linearGradient3245"
       id="radialGradient3255"
       cx="19.082115"
       cy="18.381235"
       fx="19.082115"
       fy="18.381235"
       r="28.283524"
       gradientTransform="matrix(1.3768548,-0.66576,0.3819611,0.8933607,-15.899717,14.664272)"
       gradientUnits="userSpaceOnUse" />
    <clipPath
       clipPathUnits="userSpaceOnUse"
       id="clipPath3272">
      <rect
         style="opacity:0.33000004;color:#000000;fill:#ef2929;fill-opacity:1;fill-rule:evenodd;stroke:none;stroke-width:1;stroke-linecap:butt;stroke-linejoin:bevel;marker:none;marker-start:none;marker-mid:none;marker-end:none;stroke-miterlimit:4;stroke-dasharray:none;stroke-dashoffset:0;stroke-opacity:1;visibility:visible;display:inline;overflow:visible;enable-background:accumulate"
         id="rect3274"
         width="44"
         height="44"
         x="2.4977891"
         y="2.9531684" />
    </clipPath>
  </defs>
  <sodipodi:namedview
     id="base"
     pagecolor="#ffffff"
     bordercolor="#666666"
     borderopacity="1.0"
     inkscape:pageopacity="0.0"
     inkscape:pageshadow="2"
     inkscape:zoom="3.3571429"
     inkscape:cx="47"
     inkscape:cy="10"
     inkscape:current-layer="layer1"
     showgrid="false"
     inkscape:grid-bbox="true"
     inkscape:document-units="px"
     inkscape:window-width="872"
     inkscape:window-height="623"
     inkscape:window-x="0"
     inkscape:window-y="25" />
  <metadata
     id="metadata2921">
    <rdf:RDF>
      <cc:Work
         rdf:about="">
        <dc:format>image/svg+xml</dc:format>
        <dc:type
           rdf:resource="http://purl.org/dc/dcmitype/StillImage" />
        <cc:license
           rdf:resource="http://creativecommons.org/licenses/GPL/2.0/" />
        <dc:subject>
          <rdf:Bag>
            <rdf:li>paymode</rdf:li>
            <rdf:li>credit card</rdf:li>
          </rdf:Bag>
        </dc:subject>
        <dc:creator>
          <cc:Agent>
            <dc:title>Maxime Doyen</dc:title>
          </cc:Agent>
        </dc:creator>
        <dc:title>Credit card paymode</dc:title>
      </cc:Work>
      <cc:License
         rdf:about="http://creativecommons.org/licenses/GPL/2.0/">
        <cc:permits
           rdf:resource="http://web.resource.org/cc/Reproduction" />
        <cc:permits
           rdf:resource="http://web.resource.org/cc/Distribution" />
        <cc:requires
           rdf:resource="http://web.resource.org/cc/Notice" />
        <cc:permits
           rdf:resource="http://web.resource.org/cc/DerivativeWorks" />
        <cc:requires
           rdf:resource="http://web.resource.org/cc/ShareAlike" />
        <cc:requires
           rdf:resource="http://web.resource.org/cc/SourceCode" />
      </cc:License>
    </rdf:RDF>
  </metadata>
  <g
     id="layer1"
     inkscape:label="Layer 1"
     inkscape:groupmode="layer">
    <g
       id="g3257"
       clip-path="url(#clipPath3272)">
      <g
         style="opacity:0.58730164;display:inline"
         id="g2374"
         transform="matrix(2.8307189e-2,0,0,1.5976945e-2,42.710487,42.503589)">
        <rect
           y="-150.69685"
           x="-1559.2523"
           height="478.35718"
           width="1339.6335"
           id="rect2376"
           style="opacity:0.40206185;color:#000000;fill:url(#linearGradient2382);fill-opacity:1;fill-rule:nonzero;stroke:none;stroke-width:1;stroke-linecap:round;stroke-linejoin:miter;marker:none;marker-start:none;marker-mid:none;marker-end:none;stroke-miterlimit:4;stroke-dasharray:none;stroke-dashoffset:0;stroke-opacity:1;visibility:visible;display:inline;overflow:visible" />
        <path
           sodipodi:nodetypes="cccc"
           id="path2378"
           d="M -219.61876,-150.68038 C -219.61876,-150.68038 -219.61876,327.65041 -219.61876,327.65041 C -76.744594,328.55086 125.78146,220.48075 125.78138,88.454235 C 125.78138,-43.572302 -33.655436,-150.68036 -219.61876,-150.68038 z "
           style="opacity:0.40206185;color:#000000;fill:url(#radialGradient2384);fill-opacity:1;fill-rule:nonzero;stroke:none;stroke-width:1;stroke-linecap:round;stroke-linejoin:miter;marker:none;marker-start:none;marker-mid:none;marker-end:none;stroke-miterlimit:4;stroke-dasharray:none;stroke-dashoffset:0;stroke-opacity:1;visibility:visible;display:inline;overflow:visible" />
        <path
           style="opacity:0.40206185;color:#000000;fill:url(#radialGradient2386);fill-opacity:1;fill-rule:nonzero;stroke:none;stroke-width:1;stroke-linecap:round;stroke-linejoin:miter;marker:none;marker-start:none;marker-mid:none;marker-end:none;stroke-miterlimit:4;stroke-dasharray:none;stroke-dashoffset:0;stroke-opacity:1;visibility:visible;display:inline;overflow:visible"
           d="M -1559.2523,-150.68038 C -1559.2523,-150.68038 -1559.2523,327.65041 -1559.2523,327.65041 C -1702.1265,328.55086 -1904.6525,220.48075 -1904.6525,88.454235 C -1904.6525,-43.572302 -1745.2157,-150.68036 -1559.2523,-150.68038 z "
           id="path2380"
           sodipodi:nodetypes="cccc" />
      </g>
      <rect
         inkscape:r_cy="true"
         inkscape:r_cx="true"
         ry="4.3791566"
         rx="4.5752759"
         y="5.3418312"
         x="-10.789747"
         height="38.218113"
         width="56.567047"
         id="rect7201"
         style="color:#000000;fill:url(#radialGradient3218);fill-opacity:1.0;fill-rule:evenodd;stroke:#555753;stroke-width:1.03354239;stroke-linecap:butt;stroke-linejoin:miter;marker:none;marker-start:none;marker-mid:none;marker-end:none;stroke-miterlimit:4;stroke-dasharray:none;stroke-dashoffset:0;stroke-opacity:1;visibility:visible;display:inline;overflow:visible" />
      <rect
         style="fill:#ffffff;fill-opacity:1;fill-rule:evenodd;stroke:#555dac;stroke-width:0.51387948;stroke-linecap:square;stroke-linejoin:round;stroke-miterlimit:4;stroke-dasharray:none;stroke-dashoffset:0;stroke-opacity:1"
         id="rect7205"
         width="20.041313"
         height="12.569605"
         x="21.09528"
         y="26.629622" />
      <rect
         style="fill:#d89234;fill-opacity:1;fill-rule:evenodd;stroke:none;stroke-width:0.2;stroke-linecap:square;stroke-linejoin:round;stroke-miterlimit:4;stroke-dasharray:none;stroke-dashoffset:0;stroke-opacity:1"
         id="rect7207"
         width="19.041737"
         height="3.1566145"
         x="21.591228"
         y="35.500141" />
      <rect
         style="fill:#555dac;fill-opacity:1;fill-rule:evenodd;stroke:none;stroke-width:0.2;stroke-linecap:square;stroke-linejoin:round;stroke-miterlimit:4;stroke-dasharray:none;stroke-dashoffset:0;stroke-opacity:1"
         id="rect7209"
         width="19.044241"
         height="3.1566145"
         x="21.592218"
         y="27.042587" />
      <path
         id="text7211"
         d="M 24.743515,30.920259 L 25.666908,30.920259 L 26.128604,33.580998 L 27.687776,30.920259 L 28.68938,30.920259 L 26.562548,34.479832 L 25.404523,34.479832 L 24.743515,30.920259 M 29.18892,30.920259 L 30.160249,30.920259 L 29.426076,34.479832 L 28.454747,34.479832 L 29.18892,30.920259 M 33.710013,31.032316 L 33.553592,31.785714 C 33.363528,31.696708 33.175989,31.630746 32.990978,31.587828 C 32.80596,31.543327 32.62515,31.521074 32.448547,31.521071 C 32.206344,31.521074 32.017124,31.556837 31.880888,31.628359 C 31.74633,31.699887 31.679052,31.799228 31.679053,31.926381 C 31.679052,32.007446 31.708486,32.071023 31.767356,32.117115 C 31.827904,32.161622 31.951528,32.205332 32.138227,32.248245 L 32.53685,32.341227 C 32.869875,32.420702 33.113757,32.535937 33.2685,32.686933 C 33.424919,32.836343 33.503129,33.030256 33.503132,33.268671 C 33.503129,33.654909 33.347549,33.964851 33.03639,34.1985 C 32.726908,34.432149 32.310625,34.548973 31.787539,34.548973 C 31.543655,34.548973 31.300613,34.527516 31.058412,34.4846 C 30.817893,34.441685 30.582419,34.378107 30.351991,34.293867 L 30.50589,33.519009 C 30.729589,33.641398 30.946561,33.732791 31.156807,33.79319 C 31.368732,33.85359 31.577294,33.88379 31.782493,33.883789 C 32.004509,33.88379 32.184479,33.840874 32.322401,33.755043 C 32.462001,33.669214 32.531802,33.559542 32.531804,33.426026 C 32.531802,33.338608 32.500685,33.271057 32.438456,33.223372 C 32.376222,33.1741 32.239983,33.124033 32.029741,33.073169 L 31.63364,32.980186 C 31.340979,32.911841 31.123166,32.803759 30.980202,32.655938 C 30.837234,32.508121 30.765752,32.316593 30.765752,32.081353 C 30.765752,31.711013 30.915446,31.414581 31.214834,31.192055 C 31.515902,30.967946 31.920412,30.85589 32.428364,30.855887 C 32.631878,30.85589 32.84044,30.87099 33.05405,30.901186 C 33.269337,30.929799 33.487991,30.973509 33.710013,31.032316 M 36.535696,33.831336 L 35.032029,33.831336 L 34.658635,34.479832 L 33.662078,34.479832 L 35.791431,30.920259 L 36.901521,30.920259 L 37.567574,34.479832 L 36.644182,34.479832 L 36.535696,33.831336 M 35.397853,33.185225 L 36.409549,33.185225 L 36.182485,31.814325 L 35.397853,33.185225"
         style="font-size:4.85985422px;font-style:normal;font-weight:normal;line-height:125%;fill:#555dac;fill-opacity:1;stroke:none;stroke-width:1px;stroke-linecap:butt;stroke-linejoin:miter;stroke-opacity:1;font-family:Bitstream Vera Sans" />
      <path
         id="path7215"
         d="M -3.7400956,22.355368 C -3.7400977,22.500261 -3.7665677,22.638883 -3.8195068,22.771235 C -3.8724499,22.903587 -3.9448962,23.015043 -4.0368441,23.1056 C -4.1371557,23.203122 -4.2569701,23.278355 -4.3962865,23.331296 C -4.5342137,23.382844 -4.6944304,23.408618 -4.8769364,23.408618 C -5.0469066,23.408618 -5.2106061,23.390507 -5.3680353,23.354283 C -5.5254655,23.319454 -5.6585155,23.276962 -5.7671832,23.226807 L -5.7671832,22.785863 L -5.7379267,22.785863 C -5.6236851,22.858309 -5.4899396,22.920307 -5.336688,22.971855 C -5.1834384,23.02201 -5.0329744,23.047087 -4.8852957,23.047086 C -4.7863805,23.047087 -4.6909473,23.033154 -4.5989951,23.00529 C -4.5056539,22.977427 -4.4227586,22.928665 -4.3503114,22.859006 C -4.2890131,22.799099 -4.243038,22.72735 -4.2123861,22.643758 C -4.1803443,22.560167 -4.1643224,22.463341 -4.1643213,22.353278 C -4.1643224,22.246004 -4.1831308,22.155446 -4.2207445,22.081607 C -4.2569701,22.007769 -4.3078215,21.948559 -4.3732994,21.903975 C -4.4457466,21.851035 -4.5342137,21.814117 -4.6387007,21.793217 C -4.7417987,21.770927 -4.8574334,21.759782 -4.9856051,21.759781 C -5.1082069,21.759782 -5.2266271,21.768141 -5.3408676,21.784858 C -5.453717,21.801577 -5.55124,21.818296 -5.6334376,21.835013 L -5.6334376,20.23215 L -3.7609928,20.23215 L -3.7609928,20.597862 L -5.2301091,20.597862 L -5.2301091,21.425415 C -5.1702029,21.419844 -5.1089035,21.415665 -5.0462089,21.412876 C -4.9835163,21.410093 -4.929182,21.408699 -4.8832059,21.408697 C -4.714631,21.408699 -4.5669533,21.423327 -4.4401716,21.452583 C -4.3133933,21.480448 -4.1970629,21.530603 -4.0911786,21.603047 C -3.9797254,21.679674 -3.8933481,21.77859 -3.8320457,21.899796 C -3.7707474,22.021004 -3.7400977,22.172862 -3.7400956,22.355368 M -0.99412228,21.786948 C -0.99412434,22.345617 -1.0818959,22.75591 -1.2574348,23.017829 C -1.4315856,23.278355 -1.7025598,23.408618 -2.0703592,23.408618 C -2.4437347,23.408618 -2.7167997,23.276265 -2.8895542,23.01156 C -3.0609167,22.746855 -3.1465974,22.340044 -3.1465974,21.791127 C -3.1465974,21.238034 -3.0595235,20.82983 -2.8853746,20.566516 C -2.7112268,20.301812 -2.439555,20.16946 -2.0703592,20.169457 C -1.6969869,20.16946 -1.4246195,20.303903 -1.2532551,20.572784 C -1.0805026,20.840279 -0.99412434,21.245 -0.99412228,21.786948 M -1.5437353,22.735708 C -1.4949748,22.622861 -1.4622353,22.490508 -1.4455147,22.33865 C -1.427406,22.185401 -1.4183501,22.001499 -1.418348,21.786948 C -1.4183501,21.575185 -1.427406,21.391285 -1.4455147,21.235245 C -1.4622353,21.079211 -1.4956714,20.946859 -1.5458241,20.838186 C -1.5945876,20.730914 -1.6614609,20.65011 -1.746444,20.595772 C -1.8300369,20.541441 -1.9380079,20.514273 -2.0703592,20.514271 C -2.2013204,20.514273 -2.3099891,20.541441 -2.3963654,20.595772 C -2.4813515,20.65011 -2.5489203,20.732307 -2.599074,20.842367 C -2.6464433,20.945466 -2.6791839,21.079907 -2.6972947,21.245695 C -2.7140132,21.411486 -2.7223725,21.593297 -2.7223715,21.791127 C -2.7223725,22.008465 -2.7147098,22.190277 -2.6993845,22.33656 C -2.6840601,22.482846 -2.6513196,22.613805 -2.6011638,22.72944 C -2.5551898,22.838108 -2.4904063,22.921004 -2.4068145,22.978123 C -2.3218315,23.035244 -2.2096797,23.063804 -2.0703592,23.063804 C -1.9394011,23.063804 -1.8307335,23.036637 -1.7443541,22.982303 C -1.6579779,22.927969 -1.5911046,22.845771 -1.5437353,22.735708 M 1.7309527,21.786948 C 1.7309506,22.345617 1.6431791,22.75591 1.4676402,23.017829 C 1.2934893,23.278355 1.0225152,23.408618 0.65471574,23.408618 C 0.28134034,23.408618 0.0082753378,23.276265 -0.16447926,23.01156 C -0.33584156,22.746855 -0.42152226,22.340044 -0.42152226,21.791127 C -0.42152226,21.238034 -0.33444836,20.82983 -0.16029956,20.566516 C 0.013848138,20.301812 0.28551994,20.16946 0.65471574,20.169457 C 1.028088,20.16946 1.3004554,20.303903 1.4718198,20.572784 C 1.6445723,20.840279 1.7309506,21.245 1.7309527,21.786948 M 1.1813407,22.735708 C 1.2301001,22.622861 1.2628396,22.490508 1.2795603,22.33865 C 1.297669,22.185401 1.3067249,22.001499 1.3067269,21.786948 C 1.3067249,21.575185 1.297669,21.391285 1.2795603,21.235245 C 1.2628396,21.079211 1.2294035,20.946859 1.1792508,20.838186 C 1.1304873,20.730914 1.063614,20.65011 0.97863104,20.595772 C 0.89503814,20.541441 0.78706704,20.514273 0.65471574,20.514271 C 0.52375454,20.514273 0.41508584,20.541441 0.32870964,20.595772 C 0.24372354,20.65011 0.17615464,20.732307 0.12600094,20.842367 C 0.078631638,20.945466 0.045891038,21.079907 0.027780338,21.245695 C 0.011061738,21.411486 0.0027024378,21.593297 0.0027034378,21.791127 C 0.0027024378,22.008465 0.010365138,22.190277 0.025691538,22.33656 C 0.041014838,22.482846 0.073755338,22.613805 0.12391114,22.72944 C 0.16988514,22.838108 0.23466864,22.921004 0.31826054,22.978123 C 0.40324354,23.035244 0.51539524,23.063804 0.65471574,23.063804 C 0.78567384,23.063804 0.89434154,23.036637 0.98072084,22.982303 C 1.067097,22.927969 1.1339703,22.845771 1.1813407,22.735708 M 4.4560276,21.786948 C 4.4560256,22.345617 4.3682551,22.75591 4.1927151,23.017829 C 4.0185653,23.278355 3.7475902,23.408618 3.3797907,23.408618 C 3.0064152,23.408618 2.7333502,23.276265 2.5605957,23.01156 C 2.3892333,22.746855 2.3035527,22.340044 2.3035527,21.791127 C 2.3035527,21.238034 2.3906266,20.82983 2.5647753,20.566516 C 2.7389231,20.301812 3.0105949,20.16946 3.3797907,20.169457 C 3.753163,20.16946 4.0255314,20.303903 4.1968948,20.572784 C 4.3696483,20.840279 4.4560256,21.245 4.4560276,21.786948 M 3.9064156,22.735708 C 3.9551751,22.622861 3.9879146,22.490508 4.0046352,22.33865 C 4.022745,22.185401 4.0317998,22.001499 4.0318019,21.786948 C 4.0317998,21.575185 4.022745,21.391285 4.0046352,21.235245 C 3.9879146,21.079211 3.9544785,20.946859 3.9043258,20.838186 C 3.8555623,20.730914 3.788689,20.65011 3.703707,20.595772 C 3.6201141,20.541441 3.512142,20.514273 3.3797907,20.514271 C 3.2488295,20.514273 3.1401608,20.541441 3.0537845,20.595772 C 2.9687995,20.65011 2.9012296,20.732307 2.8510759,20.842367 C 2.8037066,20.945466 2.770967,21.079907 2.7528563,21.245695 C 2.7361367,21.411486 2.7277784,21.593297 2.7277784,21.791127 C 2.7277784,22.008465 2.7354401,22.190277 2.7507665,22.33656 C 2.7660908,22.482846 2.7988303,22.613805 2.8489861,22.72944 C 2.8949601,22.838108 2.9597436,22.921004 3.0433354,22.978123 C 3.1283195,23.035244 3.2404702,23.063804 3.3797907,23.063804 C 3.5107488,23.063804 3.6194175,23.036637 3.7057968,22.982303 C 3.792172,22.927969 3.8590453,22.845771 3.9064156,22.735708 M 8.685745,21.786948 C 8.685742,22.345617 8.597972,22.75591 8.422433,23.017829 C 8.248282,23.278355 7.9773067,23.408618 7.6095072,23.408618 C 7.2361318,23.408618 6.9630678,23.276265 6.7903133,23.01156 C 6.618951,22.746855 6.5332693,22.340044 6.5332703,21.791127 C 6.5332693,21.238034 6.6203442,20.82983 6.794493,20.566516 C 6.9686407,20.301812 7.2403114,20.16946 7.6095072,20.169457 C 7.9828796,20.16946 8.255248,20.303903 8.426612,20.572784 C 8.599365,20.840279 8.685742,21.245 8.685745,21.786948 M 8.1361322,22.735708 C 8.184892,22.622861 8.217632,22.490508 8.234352,22.33865 C 8.252462,22.185401 8.261517,22.001499 8.26152,21.786948 C 8.261517,21.575185 8.252462,21.391285 8.234352,21.235245 C 8.217632,21.079211 8.184195,20.946859 8.1340424,20.838186 C 8.0852788,20.730914 8.0184066,20.65011 7.9334235,20.595772 C 7.8498306,20.541441 7.7418585,20.514273 7.6095072,20.514271 C 7.4785461,20.514273 7.3698784,20.541441 7.2835011,20.595772 C 7.198516,20.65011 7.1309461,20.732307 7.0807925,20.842367 C 7.0334231,20.945466 7.0006836,21.079907 6.9825729,21.245695 C 6.9658543,21.411486 6.957495,21.593297 6.957495,21.791127 C 6.957495,22.008465 6.9651577,22.190277 6.980483,22.33656 C 6.9958074,22.482846 7.0285469,22.613805 7.0787026,22.72944 C 7.1246767,22.838108 7.1894601,22.921004 7.273052,22.978123 C 7.3580361,23.035244 7.4701878,23.063804 7.6095072,23.063804 C 7.7404653,23.063804 7.849134,23.036637 7.9355134,22.982303 C 8.0218896,22.927969 8.0887619,22.845771 8.1361322,22.735708 M 11.410819,21.786948 C 11.410817,22.345617 11.323047,22.75591 11.147507,23.017829 C 10.973357,23.278355 10.702382,23.408618 10.334582,23.408618 C 9.961207,23.408618 9.688142,23.276265 9.515387,23.01156 C 9.344025,22.746855 9.258344,22.340044 9.258344,21.791127 C 9.258344,21.238034 9.345418,20.82983 9.519567,20.566516 C 9.693715,20.301812 9.965387,20.16946 10.334582,20.169457 C 10.707955,20.16946 10.980323,20.303903 11.151687,20.572784 C 11.32444,20.840279 11.410817,21.245 11.410819,21.786948 M 10.861207,22.735708 C 10.909967,22.622861 10.942706,22.490508 10.959427,22.33865 C 10.977537,22.185401 10.986592,22.001499 10.986594,21.786948 C 10.986592,21.575185 10.977537,21.391285 10.959427,21.235245 C 10.942706,21.079211 10.90927,20.946859 10.859118,20.838186 C 10.810354,20.730914 10.743481,20.65011 10.658499,20.595772 C 10.574906,20.541441 10.466934,20.514273 10.334582,20.514271 C 10.203621,20.514273 10.094953,20.541441 10.008576,20.595772 C 9.923591,20.65011 9.856021,20.732307 9.805868,20.842367 C 9.758498,20.945466 9.725759,21.079907 9.707648,21.245695 C 9.690928,21.411486 9.68257,21.593297 9.68257,21.791127 C 9.68257,22.008465 9.690232,22.190277 9.705558,22.33656 C 9.720883,22.482846 9.753622,22.613805 9.803778,22.72944 C 9.849752,22.838108 9.914535,22.921004 9.998127,22.978123 C 10.083111,23.035244 10.195262,23.063804 10.334582,23.063804 C 10.465541,23.063804 10.574209,23.036637 10.660589,22.982303 C 10.746964,22.927969 10.813837,22.845771 10.861207,22.735708 M 14.135894,21.786948 C 14.135892,22.345617 14.048122,22.75591 13.872582,23.017829 C 13.698432,23.278355 13.427457,23.408618 13.059657,23.408618 C 12.686282,23.408618 12.413217,23.276265 12.240462,23.01156 C 12.0691,22.746855 11.983419,22.340044 11.983419,21.791127 C 11.983419,21.238034 12.070493,20.82983 12.244642,20.566516 C 12.41879,20.301812 12.690462,20.16946 13.059657,20.169457 C 13.43303,20.16946 13.705397,20.303903 13.876761,20.572784 C 14.049515,20.840279 14.135892,21.245 14.135894,21.786948 M 13.586282,22.735708 C 13.635042,22.622861 13.667781,22.490508 13.684502,22.33865 C 13.702611,22.185401 13.711667,22.001499 13.711669,21.786948 C 13.711667,21.575185 13.702611,21.391285 13.684502,21.235245 C 13.667781,21.079211 13.634345,20.946859 13.584193,20.838186 C 13.535429,20.730914 13.468556,20.65011 13.383573,20.595772 C 13.299981,20.541441 13.192009,20.514273 13.059657,20.514271 C 12.928696,20.514273 12.820027,20.541441 12.733651,20.595772 C 12.648666,20.65011 12.581096,20.732307 12.530943,20.842367 C 12.483573,20.945466 12.450833,21.079907 12.432723,21.245695 C 12.416003,21.411486 12.407644,21.593297 12.407645,21.791127 C 12.407644,22.008465 12.415307,22.190277 12.430633,22.33656 C 12.445958,22.482846 12.478697,22.613805 12.528853,22.72944 C 12.574827,22.838108 12.63961,22.921004 12.723202,22.978123 C 12.808185,23.035244 12.920337,23.063804 13.059657,23.063804 C 13.190615,23.063804 13.299284,23.036637 13.385662,22.982303 C 13.472039,22.927969 13.538912,22.845771 13.586282,22.735708 M 16.687518,23.343835 L 15.003154,23.343835 L 15.003154,23.026188 L 15.650987,23.026188 L 15.650987,20.940587 L 15.003154,20.940587 L 15.003154,20.656376 C 15.090925,20.656379 15.184965,20.649413 15.285275,20.635478 C 15.385583,20.620155 15.461513,20.598562 15.513062,20.570694 C 15.577146,20.535868 15.627301,20.491983 15.663526,20.43904 C 15.70114,20.384707 15.722734,20.312261 15.728308,20.221701 L 16.052224,20.221701 L 16.052224,23.026188 L 16.687518,23.026188 L 16.687518,23.343835 M 21.094867,23.343835 L 18.988367,23.343835 L 18.988367,22.90707 C 19.134652,22.781684 19.280936,22.656297 19.427222,22.53091 C 19.574899,22.405523 19.712127,22.280834 19.838909,22.156839 C 20.106399,21.897708 20.289603,21.692213 20.388522,21.540353 C 20.487436,21.387105 20.536894,21.222012 20.536896,21.045075 C 20.536894,20.883468 20.483256,20.757385 20.375983,20.666825 C 20.270098,20.574877 20.121724,20.528902 19.930859,20.528899 C 19.804078,20.528902 19.666849,20.551193 19.519172,20.595772 C 19.371493,20.640357 19.227299,20.708623 19.086587,20.800571 L 19.06569,20.800571 L 19.06569,20.361716 C 19.164605,20.312958 19.296262,20.268376 19.460658,20.227971 C 19.626446,20.187571 19.786663,20.16737 19.941308,20.167367 C 20.260346,20.16737 20.510423,20.244692 20.69154,20.399333 C 20.872652,20.552586 20.963208,20.760867 20.963212,21.024178 C 20.963208,21.142601 20.947884,21.253358 20.917235,21.356452 C 20.887977,21.458157 20.844092,21.554983 20.78558,21.646932 C 20.731243,21.733312 20.667156,21.818296 20.59332,21.901885 C 20.520872,21.985478 20.432405,22.078125 20.327918,22.179827 C 20.178845,22.326112 20.024898,22.468218 19.866075,22.606142 C 19.707251,22.742675 19.558877,22.869456 19.420952,22.986482 L 21.094867,22.986482 L 21.094867,23.343835 M 23.54618,21.845461 C 23.613051,21.90537 23.668082,21.980602 23.711273,22.071158 C 23.754459,22.161716 23.776053,22.278744 23.776056,22.422241 C 23.776053,22.564347 23.750279,22.69461 23.698734,22.813031 C 23.647184,22.931452 23.574737,23.034548 23.481396,23.122318 C 23.376905,23.219842 23.253609,23.292287 23.111505,23.339656 C 22.970792,23.385631 22.816148,23.408618 22.647573,23.408618 C 22.474817,23.408618 22.304849,23.38772 22.137667,23.345925 C 21.970484,23.305522 21.833255,23.26094 21.72598,23.212178 L 21.72598,22.775414 L 21.757327,22.775414 C 21.875747,22.853433 22.015066,22.918217 22.175283,22.969765 C 22.335498,23.021313 22.490142,23.047087 22.639214,23.047086 C 22.726984,23.047087 22.820328,23.032458 22.919245,23.0032 C 23.01816,22.973944 23.098268,22.930755 23.15957,22.873634 C 23.223654,22.812334 23.271024,22.744765 23.301676,22.670925 C 23.333716,22.597087 23.349738,22.503743 23.34974,22.390895 C 23.349738,22.279441 23.331627,22.18749 23.295406,22.115043 C 23.260575,22.041206 23.211813,21.983389 23.149122,21.941591 C 23.086426,21.898404 23.010498,21.869147 22.921335,21.853821 C 22.832169,21.837104 22.73604,21.828745 22.632946,21.828743 L 22.444865,21.828743 L 22.444865,21.481839 L 22.591149,21.481839 C 22.802913,21.481841 22.971489,21.437956 23.096877,21.350184 C 23.223654,21.261022 23.287045,21.131455 23.287047,20.961484 C 23.287045,20.886254 23.271024,20.820774 23.238982,20.765045 C 23.206937,20.707927 23.162355,20.661254 23.105236,20.625029 C 23.045327,20.588809 22.98124,20.563731 22.912976,20.549797 C 22.844708,20.535868 22.767387,20.528902 22.681011,20.528899 C 22.548656,20.528902 22.407945,20.552586 22.258875,20.599952 C 22.109803,20.647323 21.969091,20.714195 21.836739,20.800571 L 21.815841,20.800571 L 21.815841,20.363806 C 21.914757,20.315048 22.046413,20.270466 22.21081,20.23006 C 22.376597,20.188268 22.536814,20.16737 22.691459,20.167367 C 22.843315,20.16737 22.977061,20.181302 23.092697,20.209162 C 23.20833,20.23703 23.312819,20.281611 23.406165,20.342909 C 23.506472,20.409784 23.5824,20.49059 23.63395,20.585323 C 23.685496,20.680063 23.71127,20.790821 23.711273,20.917599 C 23.71127,21.090356 23.64997,21.241517 23.527371,21.371081 C 23.406163,21.499258 23.262664,21.580061 23.096877,21.613496 L 23.096877,21.642753 C 23.163748,21.653899 23.240373,21.677584 23.326752,21.713806 C 23.413129,21.748637 23.48627,21.792522 23.54618,21.845461 M 26.616069,22.468216 L 26.154228,22.468216 L 26.154228,23.343835 L 25.75299,23.343835 L 25.75299,22.468216 L 24.262975,22.468216 L 24.262975,21.987567 L 25.769707,20.23215 L 26.154228,20.23215 L 26.154228,22.133852 L 26.616069,22.133852 L 26.616069,22.468216 M 25.75299,22.133852 L 25.75299,20.729518 L 24.547186,22.133852 L 25.75299,22.133852 M 29.245015,22.355368 C 29.245013,22.500261 29.218542,22.638883 29.165603,22.771235 C 29.11266,22.903587 29.040215,23.015043 28.948267,23.1056 C 28.847954,23.203122 28.728141,23.278355 28.588823,23.331296 C 28.450896,23.382844 28.290681,23.408618 28.108174,23.408618 C 27.938204,23.408618 27.774505,23.390507 27.617076,23.354283 C 27.459644,23.319454 27.326595,23.276962 27.217927,23.226807 L 27.217927,22.785863 L 27.247184,22.785863 C 27.361425,22.858309 27.495171,22.920307 27.648422,22.971855 C 27.801671,23.02201 27.952136,23.047087 28.099815,23.047086 C 28.198729,23.047087 28.294164,23.033154 28.386115,23.00529 C 28.479457,22.977427 28.562351,22.928665 28.634799,22.859006 C 28.696097,22.799099 28.742073,22.72735 28.772725,22.643758 C 28.804766,22.560167 28.820788,22.463341 28.82079,22.353278 C 28.820788,22.246004 28.801979,22.155446 28.764365,22.081607 C 28.728141,22.007769 28.67729,21.948559 28.611811,21.903975 C 28.539364,21.851035 28.450896,21.814117 28.346409,21.793217 C 28.243312,21.770927 28.127678,21.759782 27.999506,21.759781 C 27.876904,21.759782 27.758483,21.768141 27.644242,21.784858 C 27.531394,21.801577 27.433871,21.818296 27.351673,21.835013 L 27.351673,20.23215 L 29.224117,20.23215 L 29.224117,20.597862 L 27.755001,20.597862 L 27.755001,21.425415 C 27.814907,21.419844 27.876207,21.415665 27.938902,21.412876 C 28.001594,21.410093 28.055928,21.408699 28.101905,21.408697 C 28.270479,21.408699 28.418157,21.423327 28.544938,21.452583 C 28.671717,21.480448 28.788048,21.530603 28.893932,21.603047 C 29.005384,21.679674 29.091763,21.77859 29.153065,21.899796 C 29.214363,22.021004 29.245013,22.172862 29.245015,22.355368 M 33.545784,22.33447 C 33.54578,22.650724 33.441292,22.90916 33.232316,23.109779 C 33.024729,23.309005 32.769776,23.408618 32.467456,23.408618 C 32.314204,23.408618 32.174886,23.384934 32.049499,23.337566 C 31.924112,23.290197 31.813354,23.219842 31.717225,23.126498 C 31.597409,23.010863 31.504763,22.857612 31.439284,22.666747 C 31.375197,22.47588 31.343154,22.246004 31.343154,21.977119 C 31.343154,21.701268 31.37241,21.456764 31.430924,21.243605 C 31.490832,21.030449 31.585568,20.840976 31.715135,20.675183 C 31.837735,20.517756 31.995861,20.395156 32.189515,20.307382 C 32.383167,20.218221 32.608863,20.173639 32.866605,20.173636 C 32.9488,20.173639 33.017763,20.177122 33.073493,20.184085 C 33.129218,20.191056 33.185643,20.203593 33.242765,20.221701 L 33.242765,20.620849 L 33.221867,20.620849 C 33.182856,20.599955 33.123646,20.58045 33.044235,20.562336 C 32.966215,20.542835 32.886108,20.533082 32.803911,20.533078 C 32.504374,20.533082 32.265443,20.627122 32.087116,20.815199 C 31.908787,21.001888 31.804994,21.254751 31.775739,21.573789 C 31.892766,21.502739 32.007703,21.449103 32.120552,21.412876 C 32.234793,21.375263 32.366449,21.356454 32.515521,21.356452 C 32.647872,21.356454 32.764203,21.368993 32.864515,21.394069 C 32.966215,21.417755 33.070008,21.466516 33.175892,21.540353 C 33.29849,21.625339 33.390441,21.732615 33.451744,21.86218 C 33.514434,21.991748 33.54578,22.149178 33.545784,22.33447 M 33.121558,22.351189 C 33.121556,22.221623 33.102051,22.114349 33.063044,22.029363 C 33.025426,21.94438 32.962732,21.87054 32.874964,21.807845 C 32.810875,21.763266 32.739823,21.734008 32.661806,21.720075 C 32.583786,21.706144 32.502284,21.699179 32.417301,21.699177 C 32.298879,21.699179 32.188818,21.713111 32.087116,21.740972 C 31.985413,21.768838 31.880924,21.812027 31.773649,21.870539 C 31.770862,21.90119 31.768772,21.931144 31.76738,21.960399 C 31.765985,21.988265 31.765289,22.023791 31.76529,22.066978 C 31.765289,22.287103 31.78758,22.461251 31.832162,22.589424 C 31.878137,22.716204 31.940831,22.816514 32.020243,22.890352 C 32.084329,22.951652 32.153291,22.996932 32.227131,23.026188 C 32.302362,23.054052 32.383864,23.067984 32.471635,23.067984 C 32.673646,23.067984 32.83247,23.006683 32.948106,22.884082 C 33.063738,22.760089 33.121556,22.582459 33.121558,22.351189 M 36.233245,20.698171 L 34.824732,23.343835 L 34.377519,23.343835 L 35.875892,20.597862 L 34.103758,20.597862 L 34.103758,20.23215 L 36.233245,20.23215 L 36.233245,20.698171 M 38.972947,22.476575 C 38.972944,22.745462 38.86776,22.969069 38.65739,23.147395 C 38.44841,23.325723 38.185098,23.414887 37.867453,23.414887 C 37.5303,23.414887 37.261416,23.327813 37.060797,23.153664 C 36.861571,22.979517 36.761959,22.756606 36.761959,22.484935 C 36.761959,22.31218 36.812113,22.156143 36.912423,22.016824 C 37.012732,21.876113 37.15414,21.764658 37.336648,21.682458 L 37.336648,21.66992 C 37.169465,21.580758 37.045472,21.483235 36.964667,21.37735 C 36.885255,21.27147 36.845549,21.139118 36.845549,20.980293 C 36.845549,20.74624 36.941679,20.551193 37.13394,20.395153 C 37.326198,20.239119 37.570702,20.1611 37.867453,20.161097 C 38.178132,20.1611 38.426119,20.235636 38.611415,20.384704 C 38.796707,20.533778 38.889354,20.723251 38.889356,20.953125 C 38.889354,21.093839 38.845468,21.232461 38.7577,21.368991 C 38.669926,21.504132 38.541057,21.610014 38.37109,21.686638 L 38.37109,21.699177 C 38.566135,21.78277 38.715206,21.885866 38.818304,22.008464 C 38.921396,22.131066 38.972944,22.287103 38.972947,22.476575 M 38.477669,20.957304 C 38.477667,20.808236 38.419849,20.689815 38.304218,20.602042 C 38.189974,20.51288 38.04369,20.468298 37.865363,20.468295 C 37.68982,20.468298 37.545625,20.510094 37.432778,20.593682 C 37.321322,20.677276 37.265595,20.790125 37.265595,20.932228 C 37.265595,21.032539 37.293459,21.119613 37.349187,21.19345 C 37.406307,21.265897 37.491988,21.330681 37.60623,21.387799 C 37.657777,21.412878 37.731616,21.445619 37.827747,21.486019 C 37.925268,21.526423 38.020005,21.559859 38.111957,21.586328 C 38.249881,21.49438 38.345314,21.398948 38.398258,21.300029 C 38.451197,21.201114 38.477667,21.086873 38.477669,20.957304 M 38.542452,22.516281 C 38.54245,22.388109 38.51389,22.28571 38.456772,22.209083 C 38.401042,22.131066 38.29098,22.053047 38.126586,21.975029 C 38.061105,21.94438 37.989355,21.915819 37.911338,21.889347 C 37.833318,21.862879 37.729526,21.825958 37.599961,21.778588 C 37.474573,21.846857 37.373567,21.939503 37.296943,22.056529 C 37.221709,22.173558 37.184093,22.305911 37.184094,22.453588 C 37.184093,22.641669 37.248877,22.79701 37.378444,22.91961 C 37.50801,23.04221 37.672405,23.10351 37.871633,23.10351 C 38.075036,23.10351 38.237342,23.051265 38.358551,22.946776 C 38.48115,22.842288 38.54245,22.69879 38.542452,22.516281 M 41.670854,21.600957 C 41.670852,21.87263 41.639504,22.119224 41.576814,22.34074 C 41.515511,22.562257 41.422168,22.751033 41.296783,22.90707 C 41.170001,23.065894 41.011178,23.188495 40.820312,23.274872 C 40.629445,23.361249 40.405142,23.404438 40.147403,23.404438 C 40.074957,23.404438 40.00669,23.400259 39.942605,23.3919 C 39.878518,23.384934 39.821397,23.373093 39.771242,23.356373 L 39.771242,22.957225 L 39.79214,22.957225 C 39.832543,22.978123 39.889662,22.998325 39.963503,23.017829 C 40.03734,23.035941 40.119539,23.044997 40.210097,23.044996 C 40.51799,23.044997 40.759011,22.953046 40.933161,22.769146 C 41.108701,22.583852 41.210403,22.328899 41.238269,22.004285 C 41.108701,22.082305 40.986796,22.138032 40.872557,22.171467 C 40.758314,22.204905 40.633625,22.221623 40.498486,22.221622 C 40.370312,22.221623 40.253981,22.209084 40.149493,22.184006 C 40.046396,22.158929 39.942603,22.110168 39.838115,22.037722 C 39.715515,21.952738 39.622868,21.844767 39.560174,21.713806 C 39.498874,21.582847 39.468224,21.426114 39.468224,21.243605 C 39.468224,20.92596 39.572713,20.667524 39.781691,20.468295 C 39.990668,20.269072 40.245622,20.16946 40.546552,20.169457 C 40.697014,20.16946 40.836332,20.193145 40.964508,20.24051 C 41.092679,20.286488 41.20483,20.356146 41.300962,20.449488 C 41.419381,20.565124 41.510635,20.714195 41.574724,20.8967 C 41.638808,21.077817 41.670852,21.312569 41.670854,21.600957 M 41.248718,21.511097 C 41.248716,21.295155 41.226425,21.121703 41.181845,20.990741 C 41.137261,20.859783 41.075961,20.758082 40.997944,20.685632 C 40.932463,20.622942 40.862107,20.57836 40.786876,20.551887 C 40.711643,20.524026 40.630142,20.510094 40.542372,20.510091 C 40.341751,20.510094 40.182929,20.572787 40.065902,20.698171 C 39.950266,20.823561 39.892449,20.999799 39.89245,21.226886 C 39.892449,21.359242 39.911257,21.467213 39.948874,21.550802 C 39.986489,21.634395 40.049879,21.707537 40.139044,21.77023 C 40.201736,21.81342 40.270699,21.842677 40.345932,21.858 C 40.421164,21.871933 40.504754,21.878899 40.596707,21.878898 C 40.705373,21.878899 40.815435,21.864272 40.926891,21.835013 C 41.038344,21.805757 41.142833,21.763266 41.240359,21.707536 C 41.24175,21.678281 41.243143,21.649722 41.244538,21.621854 C 41.247323,21.5926 41.248716,21.55568 41.248718,21.511097"
         style="font-size:4.14097452px;font-style:normal;font-variant:normal;font-weight:normal;font-stretch:normal;text-align:start;line-height:100%;writing-mode:lr-tb;text-anchor:start;fill:#ffffff;fill-opacity:1;stroke:none;stroke-width:1px;stroke-linecap:butt;stroke-linejoin:miter;stroke-opacity:1;font-family:Verdana" />
      <path
         inkscape:r_cy="true"
         inkscape:r_cx="true"
         id="path7217"
         d="M 9.064185,13.844696 C 9.064185,14.584036 8.890044,15.151039 8.541728,15.545706 C 8.193423,15.93774 7.718473,16.133756 7.1168438,16.133756 C 6.8714413,16.133756 6.6365973,16.087712 6.4123005,15.995622 L 6.4123005,14.945811 C 6.61023,15.095788 6.8292186,15.170773 7.069336,15.170773 C 7.364883,15.170773 7.5865199,15.061583 7.7342934,14.8432 C 7.884692,14.622185 7.9598913,14.291984 7.9598913,13.852587 L 7.9598913,10.351897 L 9.064185,10.351897 L 9.064185,13.844696 M 12.147484,11.824002 C 12.764922,11.824005 13.257039,12.013445 13.623825,12.392318 C 13.990599,12.771202 14.173974,13.280323 14.173974,13.919679 C 14.173974,14.614295 13.977404,15.156302 13.584228,15.545706 C 13.191074,15.932479 12.663344,16.125863 12.001046,16.125863 C 11.391495,16.125863 10.89544,15.935107 10.512823,15.553596 C 10.132854,15.172091 9.942857,14.672179 9.942857,14.053867 C 9.942857,13.359255 10.142088,12.814616 10.540526,12.419949 C 10.938964,12.022655 11.474617,11.824005 12.147484,11.824002 M 12.056453,15.277334 C 12.378367,15.277334 12.63959,15.16288 12.840133,14.933969 C 13.043313,14.702435 13.144914,14.388018 13.144914,13.99072 C 13.144914,13.588166 13.044637,13.271114 12.844094,13.039574 C 12.643539,12.805407 12.386278,12.688322 12.072284,12.68832 C 11.760917,12.688322 11.497046,12.810668 11.280671,13.055358 C 11.064308,13.297423 10.956108,13.617103 10.956108,14.014399 C 10.956108,14.406436 11.061659,14.715594 11.272761,14.941862 C 11.486499,15.165513 11.747711,15.277334 12.056453,15.277334 M 18.781121,16.011409 L 17.720363,16.011409 L 17.720363,13.797331 C 17.720363,13.426347 17.663633,13.157979 17.550172,12.992212 C 17.436699,12.823827 17.242754,12.739631 16.968347,12.739627 C 16.728218,12.739631 16.528999,12.830404 16.37069,13.011948 C 16.212358,13.193497 16.133197,13.425034 16.133197,13.706558 L 16.133197,16.011409 L 15.060569,16.011409 L 15.060569,10.028267 L 16.133197,10.028267 L 16.133197,12.534401 C 16.278323,12.297603 16.459073,12.120006 16.675448,12.001601 C 16.89446,11.883204 17.149097,11.824005 17.439347,11.824002 C 17.88527,11.824005 18.220391,11.962137 18.444676,12.238403 C 18.668961,12.514671 18.781098,12.929071 18.781121,13.4816 L 18.781121,16.011409 M 23.641558,16.011409 L 22.5808,16.011409 L 22.5808,13.797331 C 22.5808,13.426347 22.524058,13.157979 22.410597,12.992212 C 22.297148,12.823827 22.103214,12.739631 21.828784,12.739627 C 21.588643,12.739631 21.389459,12.830404 21.231127,13.011948 C 21.072795,13.193497 20.993646,13.425034 20.993646,13.706558 L 20.993646,16.011409 L 19.921016,16.011409 L 19.921016,11.970027 L 20.993646,11.970027 L 20.993646,12.534401 C 21.138771,12.297603 21.319521,12.120006 21.535896,12.001601 C 21.754885,11.883204 22.009511,11.824005 22.299772,11.824002 C 22.745706,11.824005 23.080827,11.962137 23.305102,12.238403 C 23.52941,12.514671 23.641558,12.929071 23.641558,13.4816 L 23.641558,16.011409 M 27.112737,10.351897 L 29.099652,10.351897 C 30.060122,10.351902 30.780485,10.582124 31.260732,11.042561 C 31.743603,11.503012 31.985021,12.192362 31.985021,13.110612 C 31.985021,13.997297 31.713263,14.702435 31.169701,15.226027 C 30.628751,15.749617 29.895192,16.011409 28.969012,16.011409 L 27.112737,16.011409 L 27.112737,10.351897 M 28.216995,15.1392 L 28.945292,15.1392 C 29.541625,15.1392 30.009989,14.961602 30.350395,14.6064 C 30.693414,14.251203 30.864896,13.76576 30.864931,13.15008 C 30.864896,12.552822 30.698665,12.088436 30.366227,11.756909 C 30.033731,11.425393 29.570653,11.25963 28.976957,11.259629 L 28.216995,11.259629 L 28.216995,15.1392 M 34.818981,11.824002 C 35.436418,11.824005 35.928536,12.013445 36.295309,12.392318 C 36.662072,12.771202 36.845481,13.280323 36.845481,13.919679 C 36.845481,14.614295 36.648911,15.156302 36.255758,15.545706 C 35.862571,15.932479 35.334852,16.125863 34.672542,16.125863 C 34.062992,16.125863 33.566936,15.935107 33.184319,15.553596 C 32.804326,15.172091 32.614354,14.672179 32.614354,14.053867 C 32.614354,13.359255 32.813596,12.814616 33.21201,12.419949 C 33.610437,12.022655 34.146112,11.824005 34.818981,11.824002 M 34.727937,15.277334 C 35.049864,15.277334 35.311098,15.16288 35.511629,14.933969 C 35.714809,14.702435 35.816399,14.388018 35.816399,13.99072 C 35.816399,13.588166 35.71611,13.271114 35.515566,13.039574 C 35.315035,12.805407 35.057762,12.688322 34.743781,12.68832 C 34.43239,12.688322 34.168542,12.810668 33.952167,13.055358 C 33.735803,13.297423 33.627605,13.617103 33.627605,14.014399 C 33.627605,14.406436 33.733155,14.715594 33.944256,14.941862 C 34.157984,15.165513 34.419218,15.277334 34.727937,15.277334 M 41.219086,14.223572 L 38.519717,14.223572 C 38.519717,14.555095 38.621295,14.812945 38.824486,14.997118 C 39.030315,15.178669 39.315268,15.269442 39.679406,15.26944 C 40.08048,15.269442 40.46707,15.149723 40.839117,14.910291 L 40.839117,15.786452 C 40.422211,16.002203 39.955148,16.110078 39.437987,16.110078 C 38.812604,16.110078 38.323158,15.927215 37.969568,15.561491 C 37.618627,15.195769 37.443127,14.695858 37.443127,14.06176 C 37.443127,13.377674 37.630487,12.833035 38.005182,12.42784 C 38.382502,12.020024 38.878581,11.816113 39.493382,11.816109 C 40.034296,11.816113 40.456488,11.9845 40.759945,12.321281 C 41.066028,12.655435 41.219086,13.122455 41.219086,13.722347 L 41.219086,14.223572 M 40.229567,13.513174 C 40.229567,13.231646 40.158328,13.011952 40.015839,12.85408 C 39.875999,12.696217 39.676781,12.617284 39.418171,12.61728 C 39.183351,12.617284 38.980158,12.698847 38.808655,12.861975 C 38.637128,13.022473 38.540835,13.23954 38.519717,13.513174 L 40.229567,13.513174"
         style="font-size:4.12102222px;font-style:normal;font-variant:normal;font-weight:bold;font-stretch:normal;text-align:start;line-height:120.00000477%;writing-mode:lr-tb;text-anchor:start;fill:#eeeeec;fill-opacity:1;stroke:none;stroke-width:1pt;stroke-linecap:butt;stroke-linejoin:miter;stroke-opacity:1;font-family:Segoe" />
      <path
         transform="matrix(1.4596114,0,0,1.4628322,-17.58251,-9.8571004)"
         d="M 7.78125,11.125 C 6.4502482,11.125 5.40625,12.131512 5.40625,13.34375 L 5.40625,33.5625 C 5.40625,34.774738 6.4502493,35.781252 7.78125,35.78125 L 40.28125,35.78125 C 41.612252,35.78125 42.65625,34.774738 42.65625,33.5625 L 42.65625,13.34375 C 42.65625,12.131512 41.612252,11.125 40.28125,11.125 L 7.78125,11.125 z "
         id="path3754"
         style="opacity:0.8;color:#000000;fill:none;fill-opacity:1;fill-rule:evenodd;stroke:url(#linearGradient2236);stroke-width:0.71336722;stroke-linecap:butt;stroke-linejoin:miter;marker:none;marker-start:none;marker-mid:none;marker-end:none;stroke-miterlimit:4;stroke-dasharray:none;stroke-dashoffset:0;stroke-opacity:1;visibility:visible;display:inline;overflow:visible"
         xlink:href="#rect2373"
         inkscape:original="M 7.78125 10.34375 C 6.043083 10.34375 4.625 11.68009 4.625 13.34375 L 4.625 33.5625 C 4.625 35.22616 6.043083 36.562502 7.78125 36.5625 L 40.28125 36.5625 C 42.019417 36.5625 43.4375 35.22616 43.4375 33.5625 L 43.4375 13.34375 C 43.4375 11.68009 42.019417 10.34375 40.28125 10.34375 L 7.78125 10.34375 z "
         inkscape:radius="-0.79439491"
         sodipodi:type="inkscape:offset"
         inkscape:href="#rect2373" />
      <path
         sodipodi:nodetypes="ccccsccc"
         id="rect3220"
         d="M -5.4370238,6.9301727 L 41.032872,6.9301727 C 43.416336,6.9301727 44.169712,8.4350302 44.169712,10.861084 L 43.990413,29.055111 C 43.990413,31.481163 26.577315,28.060071 16.384227,21.124621 C 13.892746,19.429399 -0.053298553,8.8472957 -9.0147114,29.253654 L -9.1117585,10.323188 C -9.1117585,7.8971344 -7.8204869,6.9301727 -5.4370238,6.9301727 z "
         style="opacity:0.25;color:#000000;fill:url(#radialGradient3255);fill-opacity:1;fill-rule:evenodd;stroke:none;stroke-width:1.03354239;stroke-linecap:butt;stroke-linejoin:miter;marker:none;marker-start:none;marker-mid:none;marker-end:none;stroke-miterlimit:4;stroke-dashoffset:0;stroke-opacity:1;visibility:visible;display:inline;overflow:visible" />
    </g>
  </g>
</svg>
