<?xml version="1.0" encoding="UTF-8" standalone="no"?>
<!-- Created with Inkscape (http://www.inkscape.org/) -->
<svg
   xmlns:i="http://ns.adobe.com/AdobeIllustrator/10.0/"
   xmlns:dc="http://purl.org/dc/elements/1.1/"
   xmlns:cc="http://web.resource.org/cc/"
   xmlns:rdf="http://www.w3.org/1999/02/22-rdf-syntax-ns#"
   xmlns:svg="http://www.w3.org/2000/svg"
   xmlns="http://www.w3.org/2000/svg"
   xmlns:xlink="http://www.w3.org/1999/xlink"
   xmlns:sodipodi="http://sodipodi.sourceforge.net/DTD/sodipodi-0.dtd"
   xmlns:inkscape="http://www.inkscape.org/namespaces/inkscape"
   height="48"
   id="svg1"
   inkscape:version="0.45"
   sodipodi:docbase="/home/max/dev/homebank/gfx/gnome-theme"
   sodipodi:docname="report_car.svg"
   sodipodi:version="0.32"
   width="48"
   inkscape:output_extension="org.inkscape.output.svg.inkscape"
   version="1.0"
   sodipodi:modified="true">
  <metadata
     id="metadata3">
    <rdf:RDF>
      <cc:Work
         rdf:about="">
        <dc:title>Car Cost</dc:title>
        <dc:description />
        <dc:subject>
          <rdf:Bag />
        </dc:subject>
        <dc:publisher>
          <cc:Agent
             rdf:about="http://www.openclipart.org">
            <dc:title></dc:title>
          </cc:Agent>
        </dc:publisher>
        <dc:creator>
          <cc:Agent>
            <dc:title>Andy Fitzsimon, Maxime Doyen</dc:title>
          </cc:Agent>
        </dc:creator>
        <dc:rights>
          <cc:Agent>
            <dc:title></dc:title>
          </cc:Agent>
        </dc:rights>
        <dc:date />
        <dc:format>image/svg+xml</dc:format>
        <dc:type
           rdf:resource="http://purl.org/dc/dcmitype/StillImage" />
        <cc:license
           rdf:resource="http://creativecommons.org/licenses/GPL/2.0/" />
        <dc:language></dc:language>
      </cc:Work>
      <cc:License
         rdf:about="http://creativecommons.org/licenses/GPL/2.0/">
        <cc:permits
           rdf:resource="http://web.resource.org/cc/Reproduction" />
        <cc:permits
           rdf:resource="http://web.resource.org/cc/Distribution" />
        <cc:requires
           rdf:resource="http://web.resource.org/cc/Notice" />
        <cc:permits
           rdf:resource="http://web.resource.org/cc/DerivativeWorks" />
        <cc:requires
           rdf:resource="http://web.resource.org/cc/ShareAlike" />
        <cc:requires
           rdf:resource="http://web.resource.org/cc/SourceCode" />
      </cc:License>
    </rdf:RDF>
  </metadata>
  <defs
     id="defs3">
    <linearGradient
       inkscape:collect="always"
       id="linearGradient7440">
      <stop
         style="stop-color:#545454;stop-opacity:1;"
         offset="0"
         id="stop7442" />
      <stop
         style="stop-color:#545454;stop-opacity:0;"
         offset="1"
         id="stop7444" />
    </linearGradient>
    <linearGradient
       inkscape:collect="always"
       id="linearGradient7432">
      <stop
         style="stop-color:#545454;stop-opacity:1;"
         offset="0"
         id="stop7434" />
      <stop
         style="stop-color:#545454;stop-opacity:0;"
         offset="1"
         id="stop7436" />
    </linearGradient>
    <linearGradient
       inkscape:collect="always"
       id="linearGradient5485">
      <stop
         style="stop-color:#eeeeec;stop-opacity:1;"
         offset="0"
         id="stop5487" />
      <stop
         style="stop-color:#eeeeec;stop-opacity:0;"
         offset="1"
         id="stop5489" />
    </linearGradient>
    <linearGradient
       id="linearGradient3526">
      <stop
         style="stop-color:#72776c;stop-opacity:1;"
         offset="0"
         id="stop3528" />
      <stop
         style="stop-color:#b4b4b4;stop-opacity:1;"
         offset="1"
         id="stop3530" />
    </linearGradient>
    <linearGradient
       id="linearGradient3520">
      <stop
         style="stop-color:#a9c5e2;stop-opacity:1;"
         offset="0"
         id="stop3522" />
      <stop
         style="stop-color:#3d77b5;stop-opacity:1;"
         offset="1"
         id="stop3524" />
    </linearGradient>
    <linearGradient
       inkscape:collect="always"
       xlink:href="#linearGradient3520"
       id="linearGradient2515"
       x1="86.111839"
       y1="7.5538912"
       x2="82.181999"
       y2="95.332001"
       gradientUnits="userSpaceOnUse" />
    <linearGradient
       inkscape:collect="always"
       xlink:href="#linearGradient3520"
       id="linearGradient2517"
       x1="86.111839"
       y1="7.5538912"
       x2="82.181999"
       y2="95.332001"
       gradientUnits="userSpaceOnUse" />
    <linearGradient
       inkscape:collect="always"
       xlink:href="#linearGradient3520"
       id="linearGradient2519"
       x1="86.111839"
       y1="7.5538912"
       x2="82.181999"
       y2="95.332001"
       gradientUnits="userSpaceOnUse" />
    <linearGradient
       inkscape:collect="always"
       xlink:href="#linearGradient3520"
       id="linearGradient2521"
       x1="86.111839"
       y1="7.5538912"
       x2="82.181999"
       y2="95.332001"
       gradientUnits="userSpaceOnUse" />
    <linearGradient
       inkscape:collect="always"
       xlink:href="#linearGradient3520"
       id="linearGradient2523"
       x1="86.111839"
       y1="7.5538912"
       x2="82.181999"
       y2="95.332001"
       gradientUnits="userSpaceOnUse" />
    <linearGradient
       inkscape:collect="always"
       xlink:href="#linearGradient3520"
       id="linearGradient2525"
       x1="86.111839"
       y1="7.5538912"
       x2="82.181999"
       y2="95.332001"
       gradientUnits="userSpaceOnUse" />
    <linearGradient
       inkscape:collect="always"
       xlink:href="#linearGradient3520"
       id="linearGradient2527"
       x1="86.111839"
       y1="7.5538912"
       x2="82.181999"
       y2="95.332001"
       gradientUnits="userSpaceOnUse" />
    <linearGradient
       inkscape:collect="always"
       xlink:href="#linearGradient3520"
       id="linearGradient2529"
       x1="86.111839"
       y1="7.5538912"
       x2="82.181999"
       y2="95.332001"
       gradientUnits="userSpaceOnUse" />
    <linearGradient
       inkscape:collect="always"
       xlink:href="#linearGradient3520"
       id="linearGradient2531"
       x1="86.111839"
       y1="7.5538912"
       x2="82.181999"
       y2="95.332001"
       gradientUnits="userSpaceOnUse" />
    <linearGradient
       inkscape:collect="always"
       xlink:href="#linearGradient3520"
       id="linearGradient2533"
       x1="86.111839"
       y1="7.5538912"
       x2="82.181999"
       y2="95.332001"
       gradientUnits="userSpaceOnUse" />
    <linearGradient
       inkscape:collect="always"
       xlink:href="#linearGradient3520"
       id="linearGradient2535"
       x1="86.111839"
       y1="7.5538912"
       x2="82.181999"
       y2="95.332001"
       gradientUnits="userSpaceOnUse" />
    <linearGradient
       inkscape:collect="always"
       xlink:href="#linearGradient3520"
       id="linearGradient2537"
       x1="86.111839"
       y1="7.5538912"
       x2="82.181999"
       y2="95.332001"
       gradientUnits="userSpaceOnUse" />
    <linearGradient
       inkscape:collect="always"
       xlink:href="#linearGradient3520"
       id="linearGradient2539"
       x1="86.111839"
       y1="7.5538912"
       x2="82.181999"
       y2="95.332001"
       gradientUnits="userSpaceOnUse" />
    <linearGradient
       inkscape:collect="always"
       xlink:href="#linearGradient3520"
       id="linearGradient2541"
       x1="86.111839"
       y1="7.5538912"
       x2="82.181999"
       y2="95.332001"
       gradientUnits="userSpaceOnUse" />
    <linearGradient
       inkscape:collect="always"
       xlink:href="#linearGradient3520"
       id="linearGradient2543"
       x1="86.111839"
       y1="7.5538912"
       x2="82.181999"
       y2="95.332001"
       gradientUnits="userSpaceOnUse" />
    <linearGradient
       inkscape:collect="always"
       xlink:href="#linearGradient3520"
       id="linearGradient2545"
       x1="86.111839"
       y1="7.5538912"
       x2="82.181999"
       y2="95.332001"
       gradientUnits="userSpaceOnUse" />
    <linearGradient
       inkscape:collect="always"
       xlink:href="#linearGradient3520"
       id="linearGradient2547"
       x1="86.111839"
       y1="7.5538912"
       x2="82.181999"
       y2="95.332001"
       gradientUnits="userSpaceOnUse" />
    <linearGradient
       inkscape:collect="always"
       xlink:href="#linearGradient3520"
       id="linearGradient2549"
       x1="86.111839"
       y1="7.5538912"
       x2="82.181999"
       y2="95.332001"
       gradientUnits="userSpaceOnUse" />
    <linearGradient
       inkscape:collect="always"
       xlink:href="#linearGradient3526"
       id="linearGradient3532"
       x1="85.585503"
       y1="18.331722"
       x2="85.585503"
       y2="49.859993"
       gradientUnits="userSpaceOnUse" />
    <radialGradient
       inkscape:collect="always"
       xlink:href="#linearGradient5485"
       id="radialGradient5491"
       cx="83.766113"
       cy="17.100117"
       fx="83.766113"
       fy="17.100117"
       r="61.023286"
       gradientTransform="matrix(1.2709742,-0.6809775,0.6157679,1.1492674,-35.436064,49.587577)"
       gradientUnits="userSpaceOnUse" />
    <linearGradient
       inkscape:collect="always"
       xlink:href="#linearGradient7432"
       id="linearGradient7438"
       x1="148.3145"
       y1="122.17066"
       x2="148.3145"
       y2="90.122742"
       gradientUnits="userSpaceOnUse" />
    <linearGradient
       inkscape:collect="always"
       xlink:href="#linearGradient7440"
       id="linearGradient7446"
       x1="19.848"
       y1="118.01913"
       x2="19.848"
       y2="90.956436"
       gradientUnits="userSpaceOnUse" />
  </defs>
  <sodipodi:namedview
     bordercolor="#666666"
     borderopacity="1.0"
     id="base"
     inkscape:cx="35.5"
     inkscape:cy="18"
     inkscape:pageopacity="0.0"
     inkscape:pageshadow="2"
     inkscape:window-height="638"
     inkscape:window-width="872"
     inkscape:window-x="0"
     inkscape:window-y="25"
     inkscape:zoom="5.6153846"
     pagecolor="#ffffff"
     showborder="true"
     width="48px"
     height="48px"
     inkscape:current-layer="svg1" />
  <g
     id="g2264"
     transform="matrix(0.2500536,0,0,0.2500536,2.3634048,7.4822807)">
    <path
       style="fill-rule:evenodd;stroke:#000000;stroke-width:0.036;stroke-miterlimit:10;fill:#2e3436"
       clip-rule="evenodd"
       d="M 138.377,70.492 C 135.391,70.457 132.979,72.797 132.906,75.785 C 132.689,91.156 132.437,106.529 132.185,121.9 C 132.15,124.888 134.525,127.336 137.478,127.373 C 144.353,127.48 151.193,127.588 158.07,127.697 C 161.058,127.732 163.468,125.357 163.541,122.404 C 163.758,107.033 164.01,91.66 164.262,76.252 C 164.297,73.301 161.922,70.854 158.969,70.816 C 152.094,70.708 145.254,70.601 138.377,70.492 z "
       i:knockout="Off"
       stroke-miterlimit="10"
       id="path2266" />
    <path
       style="fill:url(#linearGradient7438);fill-rule:evenodd;stroke:#000000;stroke-width:0.036;stroke-miterlimit:10;fill-opacity:1.0"
       clip-rule="evenodd"
       d="M 139.53,73.011 C 136.866,72.976 134.671,75.171 134.634,77.907 C 134.419,92.055 134.167,106.239 133.95,120.423 C 133.915,123.159 136.038,125.392 138.702,125.464 C 144.823,125.536 150.979,125.644 157.134,125.751 C 159.763,125.788 161.958,123.591 161.995,120.856 C 162.247,106.67 162.462,92.524 162.679,78.338 C 162.714,75.604 160.591,73.334 157.927,73.299 C 151.807,73.228 145.651,73.121 139.53,73.011 z "
       i:knockout="Off"
       stroke-miterlimit="10"
       id="path2268" />
    <path
       style="fill-rule:evenodd;stroke:#000000;stroke-width:0.036;stroke-miterlimit:10;fill:#2e3436"
       clip-rule="evenodd"
       d="M 9.894,68.476 C 6.942,68.404 4.494,70.781 4.458,73.769 C 4.206,89.14 3.954,104.511 3.738,119.884 C 3.666,122.872 6.042,125.32 8.994,125.357 C 15.87,125.464 22.746,125.572 29.622,125.679 C 32.574,125.716 35.022,123.339 35.058,120.388 C 35.31,105.017 35.562,89.644 35.778,74.236 C 35.85,71.285 33.474,68.836 30.486,68.8 C 23.646,68.693 16.77,68.583 9.894,68.476 z "
       i:knockout="Off"
       stroke-miterlimit="10"
       id="path2270" />
    <path
       style="fill:url(#linearGradient7446);fill-rule:evenodd;stroke:#000000;stroke-width:0.036;stroke-miterlimit:10;fill-opacity:1.0"
       clip-rule="evenodd"
       d="M 11.046,70.996 C 8.382,70.961 6.186,73.156 6.15,75.892 C 5.934,90.04 5.718,104.224 5.502,118.408 C 5.43,121.144 7.554,123.377 10.218,123.449 C 16.374,123.521 22.494,123.629 28.65,123.736 C 31.314,123.773 33.51,121.576 33.546,118.84 C 33.762,104.656 33.978,90.508 34.194,76.324 C 34.266,73.588 32.142,71.32 29.478,71.285 C 23.322,71.175 17.202,71.105 11.046,70.996 z "
       i:knockout="Off"
       stroke-miterlimit="10"
       id="path2272" />
    <path
       style="fill:#2e3436;fill-rule:evenodd;stroke:#000000;stroke-width:0.39991426;stroke-miterlimit:10;stroke-dasharray:none"
       d="M 18.714001,33.880001 C 13.344932,33.133177 7.8847423,33.701834 2.51625,34.18825 C -0.50139517,34.878491 -1.1669787,40.181363 2.3042578,40.832781 C 6.8682772,42.678341 11.669801,43.917729 16.518,44.752 C 16.554,46.552 16.59,48.352 16.625999,50.152 C 13.17453,53.747714 11.259618,58.598713 10.145859,63.386676 C 8.5354862,70.580552 8.6905033,78.110995 10.506,85.251 C 11.486671,89.790595 12.7526,94.301798 14.52,98.598 C 17.015293,100.32052 12.071224,102.78076 15.133125,104.56767 C 18.37391,106.13892 22.131782,106.02324 25.648531,106.39292 C 28.51474,106.83849 32.464059,106.16052 34.623539,107.20452 C 34.785491,109.90276 37.402717,111.69812 39.980948,111.55753 C 42.956883,111.93746 46.130119,111.51797 48.953437,112.64222 C 51.043303,115.28689 54.283884,112.67931 56.941558,112.77806 C 68.624969,112.25421 80.321394,112.96504 92.008761,113.05948 C 99.331231,113.29221 106.67416,113.29998 113.97688,113.89744 C 116.6205,115.71136 118.50426,112.5574 121.29896,113.10382 C 126.19957,112.96139 131.16633,113.68834 136.02257,112.84962 C 138.24083,112.36116 140.72055,110.60761 140.286,108.04 C 145.537,108.32424 150.83979,108.27285 156.05627,107.61545 C 159.76477,107.10358 157.5211,102.83015 156.90081,101.15492 C 159.69971,96.944325 160.46976,91.794556 161.91885,87.034166 C 163.41684,81.789296 164.14916,76.273951 163.2096,70.855714 C 162.20934,64.456972 160.94278,57.590191 156.61284,52.516658 C 155.4131,51.192225 153.42292,50.569935 153.97168,48.488549 C 154.204,47.631336 153.2522,45.368762 154.79304,46.071062 C 159.85058,46.778141 164.95931,45.62738 169.84372,44.384397 C 172.61647,44.009423 174.68803,41.071729 173.27536,38.428938 C 172.60157,35.00035 168.55053,36.528629 166.04104,35.912419 C 162.28674,35.823607 158.37293,35.284271 154.73477,36.4135 C 154.27901,37.878217 151.86203,41.978728 151.20262,38.286228 C 148.8327,29.019622 144.87934,20.25023 140.68233,11.687128 C 139.24293,8.9081835 137.47551,6.3098237 135.86312,3.64 C 133.62585,1.7337055 130.44395,1.6846245 127.66752,1.1822279 C 117.70697,0.20860139 107.67759,0.58508146 97.686305,0.25675456 C 82.592714,0.0098096904 67.496296,0.2671777 52.403211,0.19815684 C 48.312462,0.086837387 44.001513,-0.51581509 40.183641,1.3756562 C 35.220542,3.6011485 32.170857,8.469224 29.442475,12.937694 C 26.430518,18.418174 23.766682,24.079065 20.8065,29.587 C 20.096303,31.011795 19.415238,32.450825 18.714001,33.880001 z "
       id="path2274" />
    <path
       style="fill:url(#linearGradient2545);fill-rule:evenodd;stroke:#204a87;stroke-width:0.036;stroke-miterlimit:10;fill-opacity:1.0"
       clip-rule="evenodd"
       d="M 63.138,0.724 C 60.51,0.76 57.522,0.868 54.03,1.048 C 50.466,1.084 45.39,0.616 42.258,1.588 C 39.162,2.344 38.37,2.056 35.166,6.556 C 31.71,11.092 24.582,23.512 22.098,28.804 C 19.578,33.916 20.55,35.32 20.298,37.732 C 19.974,40.108 20.046,42.016 20.37,43.312 C 21.666,44.32 22.818,44.176 23.682,43.276 C 24.438,42.34 24.402,40.396 25.518,37.444 C 26.742,34.276 28.65,28.768 30.558,24.808 C 32.25,20.704 34.158,16.348 35.85,13.684 C 37.434,11.02 38.838,9.508 40.206,9.004 C 42.582,8.788 45.678,8.608 49.494,8.464 C 53.274,8.32 57.738,7.996 63.03,7.888 C 62.958,7.168 62.994,6.16 62.994,5.008 C 63.03,3.82 63.03,2.344 63.138,0.724 z "
       i:knockout="Off"
       stroke-miterlimit="10"
       id="path2276" />
    <path
       style="fill:url(#linearGradient2543);fill-rule:evenodd;stroke:#204a87;stroke-width:0.036;stroke-miterlimit:10;fill-opacity:1.0"
       clip-rule="evenodd"
       d="M 64.11,1.12 C 66.234,1.192 68.754,1.372 71.67,1.372 C 74.55,1.372 77.79,1.336 81.534,1.264 C 81.534,2.056 81.606,3.064 81.75,4.144 C 81.822,5.296 81.966,6.34 82.182,7.816 L 64.398,8.068 C 64.326,5.764 64.218,3.46 64.11,1.12 z "
       i:knockout="Off"
       stroke-miterlimit="10"
       id="path2278" />
    <path
       style="fill:url(#linearGradient2539);fill-rule:evenodd;stroke:#204a87;stroke-width:0.036;stroke-miterlimit:10;fill-opacity:1.0"
       clip-rule="evenodd"
       d="M 89.274,1.732 C 91.254,1.624 93.594,1.588 96.438,1.624 C 99.247,1.588 102.307,1.66 105.907,1.696 C 105.798,2.668 105.798,3.568 105.762,4.792 C 105.727,5.872 105.797,7.096 105.834,8.464 L 88.987,8.32 C 89.059,6.124 89.167,3.928 89.274,1.732 z "
       i:knockout="Off"
       stroke-miterlimit="10"
       id="path2280" />
    <path
       style="fill:url(#linearGradient2541);fill-rule:evenodd;stroke:#204a87;stroke-width:0.036;stroke-miterlimit:10;fill-opacity:1.0"
       clip-rule="evenodd"
       d="M 82.902,1.444 L 87.906,1.372 L 87.798,8.14 L 83.55,8.176 L 82.902,1.444 z "
       i:knockout="Off"
       stroke-miterlimit="10"
       id="path2282" />
    <path
       style="fill:url(#linearGradient2537);fill-rule:evenodd;stroke:#204a87;stroke-width:0.036;stroke-miterlimit:10;fill-opacity:1.0"
       clip-rule="evenodd"
       d="M 107.274,1.66 C 110.587,1.552 113.717,1.624 116.958,1.732 C 120.126,1.804 123.403,2.02 126.247,2.38 C 128.874,2.596 130.927,1.372 133.231,3.424 C 135.499,5.476 137.911,10.912 139.782,14.188 C 141.546,17.176 142.339,18.652 143.958,22.072 C 145.435,25.564 147.991,31.036 149.144,34.744 C 150.294,38.272 150.908,41.548 150.835,43.456 C 150.546,45.22 149.071,47.092 147.954,45.616 C 146.766,43.924 145.938,39.028 143.923,34.24 C 141.87,29.38 137.732,21.604 135.534,17.32 C 133.159,13.036 132.403,10.372 130.206,8.896 C 128.046,7.384 126.21,8.068 122.466,8.032 C 118.542,7.78 113.538,7.852 107.167,7.852 C 107.202,5.8 107.239,3.748 107.274,1.66 z "
       i:knockout="Off"
       stroke-miterlimit="10"
       id="path2284" />
    <path
       style="fill:url(#linearGradient3532);fill-rule:evenodd;stroke:#000000;stroke-width:0.036;stroke-miterlimit:10;fill-opacity:1.0"
       clip-rule="evenodd"
       d="M 25.086,46.732 C 25.77,43.168 26.814,39.352 28.218,35.284 C 29.55,31.072 31.278,26.212 33.258,22.252 C 34.986,18.22 37.11,13.684 39.486,11.704 C 41.898,9.616 43.374,10.264 47.802,10.048 C 52.086,9.724 57.63,9.976 65.406,9.976 C 73.146,9.94 84.954,9.832 94.026,9.796 C 103.026,9.544 113.286,9.328 118.975,9.436 C 124.446,9.58 124.914,9.364 127.327,10.876 C 129.774,12.316 131.358,14.62 133.626,18.328 C 135.823,22.036 138.126,27.4 140.396,32.764 C 142.626,37.948 144.535,43.528 146.66,49.504 C 144.752,49.252 141.152,49.216 136.004,49.252 C 130.604,49.288 120.02,50.044 115.484,49.72 C 110.984,49.252 113.287,47.488 109.47,46.912 C 105.546,46.336 100.003,46.084 92.407,46.012 C 84.594,45.76 69.655,45.436 63.571,46.012 C 57.487,46.516 59.863,48.748 56.263,49.396 C 52.591,50.008 47.011,49.864 41.755,49.792 C 36.355,49.756 30.739,49.324 24.511,48.892 C 24.69,48.172 24.87,47.452 25.086,46.732 z "
       i:knockout="Off"
       stroke-miterlimit="10"
       id="path2286" />
    <path
       style="fill:url(#linearGradient2547);fill-rule:evenodd;stroke:#204a87;stroke-width:0.036;stroke-miterlimit:10;fill-opacity:1.0"
       clip-rule="evenodd"
       d="M 60.33,48.964 C 60.474,49.756 59.358,50.296 57.27,50.728 C 55.038,51.124 52.302,51.232 47.406,51.448 C 42.366,51.52 32.79,51.556 27.858,51.556 C 22.998,51.556 19.722,51.376 18.174,51.304 C 16.554,52.24 15.258,53.86 13.998,56.56 C 12.666,59.116 11.334,63.22 10.83,67.072 C 10.29,70.924 10.398,74.92 11.01,79.457 C 18.03,79.889 25.59,80.176 34.266,80.465 C 42.834,80.752 52.086,80.897 62.31,81.041 L 61.842,75.857 C 60.618,75.748 58.062,75.748 54.318,75.568 C 50.43,75.461 45.57,75.172 39.198,74.992 C 37.11,76.18 34.41,76.685 31.494,76.648 C 28.326,76.613 23.322,76 21.198,74.668 C 19.146,73.049 18.462,70.061 19.002,67.938 C 19.434,65.741 21.018,63.473 23.754,62.249 C 26.418,60.917 31.746,60.125 34.734,60.557 C 37.65,60.953 39.594,63.257 40.998,64.698 C 42.258,66.065 42.726,67.253 42.402,68.55 C 43.626,68.37 45.93,68.226 49.17,68.261 C 52.446,68.191 56.658,68.261 61.95,68.478 L 61.878,48.57 C 61.374,48.676 60.87,48.82 60.33,48.964 z "
       i:knockout="Off"
       stroke-miterlimit="10"
       id="path2288" />
    <path
       style="fill:url(#linearGradient2535);fill-rule:evenodd;stroke:#204a87;stroke-width:0.036;stroke-miterlimit:10;fill-opacity:1.0"
       clip-rule="evenodd"
       d="M 110.659,49.432 C 110.514,50.008 111.739,50.548 114.331,50.908 C 116.923,51.16 121.386,51.556 126.175,51.52 C 130.927,51.448 137.911,50.764 142.411,50.728 C 146.766,50.62 150.114,50.764 152.454,51.16 C 154.218,52.132 155.55,53.608 156.991,55.732 C 158.251,57.856 159.511,61.06 160.374,63.832 C 161.167,66.388 161.706,68.728 161.851,71.537 C 161.923,74.344 161.527,77.441 160.808,80.824 C 156.271,81.076 149.9,81.185 141.294,81.293 C 132.618,81.365 122.214,81.438 109.542,81.365 L 109.29,75.965 C 112.854,76.11 116.563,76.18 120.702,76.18 C 124.735,76.11 129.054,76.037 133.663,75.821 C 134.706,77.26 136.542,78.089 139.315,78.45 C 141.979,78.702 147.559,78.774 149.934,77.694 C 152.239,76.469 153.319,73.698 153.319,71.465 C 153.067,69.233 151.553,65.596 149.755,64.156 C 147.954,62.644 145.327,62.248 143.13,62.14 C 140.827,61.852 138.595,61.456 136.579,62.608 C 134.563,63.688 132.835,65.777 131.251,68.873 L 108.965,68.8 L 108.713,49.648 C 109.362,49.576 110.01,49.504 110.659,49.432 z "
       i:knockout="Off"
       stroke-miterlimit="10"
       id="path2290" />
    <path
       style="fill:url(#linearGradient2531);fill-rule:evenodd;stroke:#204a87;stroke-width:0.036;stroke-miterlimit:10;fill-opacity:1.0"
       clip-rule="evenodd"
       d="M 63.786,47.956 C 64.686,47.776 66.702,47.56 69.978,47.452 C 73.146,47.272 77.574,47.2 83.118,47.092 L 83.406,68.007 C 79.806,68.152 76.35,68.259 73.182,68.331 C 69.906,68.403 66.918,68.331 64.074,68.259 C 64.002,61.492 63.894,54.724 63.786,47.956 z "
       i:knockout="Off"
       stroke-miterlimit="10"
       id="path2292" />
    <path
       style="fill:url(#linearGradient2527);fill-rule:evenodd;stroke:#204a87;stroke-width:0.036;stroke-miterlimit:10;fill-opacity:1.0"
       clip-rule="evenodd"
       d="M 89.129,47.2 C 91.865,47.164 94.818,47.308 97.842,47.488 C 100.938,47.632 103.926,47.956 107.346,48.316 L 107.633,68.044 L 89.418,68.476 C 89.346,61.384 89.239,54.292 89.129,47.2 z "
       i:knockout="Off"
       stroke-miterlimit="10"
       id="path2294" />
    <path
       style="fill:url(#linearGradient2529);fill-rule:evenodd;stroke:#204a87;stroke-width:0.036;stroke-miterlimit:10;fill-opacity:1.0"
       clip-rule="evenodd"
       d="M 84.306,47.092 L 87.978,47.02 L 88.266,68.296 L 84.594,68.548 L 84.306,47.092 z "
       i:knockout="Off"
       stroke-miterlimit="10"
       id="path2296" />
    <path
       style="fill:#bdbdbd;fill-rule:evenodd;stroke:#000000;stroke-width:0.036;stroke-miterlimit:10"
       clip-rule="evenodd"
       d="M 38.802,73.048 C 39.846,72.075 40.458,70.923 40.494,69.735 C 40.674,68.44 40.278,67.108 39.45,65.883 C 38.406,64.623 36.894,62.931 34.77,62.463 C 32.466,61.887 28.974,61.995 26.67,62.787 C 24.294,63.435 22.17,64.875 21.27,66.532 C 20.298,68.116 20.658,70.923 21.378,72.327 C 21.954,73.587 23.25,73.911 25.266,74.415 C 27.246,74.811 31.062,75.208 33.402,75.063 C 35.778,74.812 37.398,73.912 38.802,73.048 z "
       i:knockout="Off"
       stroke-miterlimit="10"
       id="path2298" />
    <path
       style="fill:#bdbdbd;fill-rule:evenodd;stroke:#000000;stroke-width:0.036;stroke-miterlimit:10"
       clip-rule="evenodd"
       d="M 133.446,73.48 C 134.563,74.992 137.083,76.972 139.891,77.476 C 142.59,77.763 147.811,77.152 149.717,75.785 C 151.41,74.273 151.266,71.5 150.797,69.556 C 150.293,67.613 149.143,65.452 147.053,64.587 C 144.823,63.652 140.502,63.4 138.125,64.12 C 135.75,64.804 133.914,66.964 133.158,68.655 C 132.331,70.24 132.293,71.896 133.446,73.48 z "
       i:knockout="Off"
       stroke-miterlimit="10"
       id="path2300" />
    <path
       style="fill:#faa13b;fill-rule:evenodd;stroke:#000000;stroke-width:0.036;stroke-miterlimit:10"
       clip-rule="evenodd"
       d="M 55.002,69.953 C 53.922,69.844 52.482,69.844 50.538,69.808 C 48.558,69.773 46.182,69.808 43.41,69.915 C 43.374,70.636 43.302,71.284 43.05,71.86 C 42.798,72.364 42.366,72.868 41.898,73.227 L 54.858,74.2 C 54.894,72.796 54.93,71.392 55.002,69.953 z "
       i:knockout="Off"
       stroke-miterlimit="10"
       id="path2302" />
    <path
       style="fill:#faa13b;fill-rule:evenodd;stroke:#000000;stroke-width:0.036;stroke-miterlimit:10"
       clip-rule="evenodd"
       d="M 130.098,70.636 C 128.407,70.636 126.534,70.708 124.483,70.708 C 122.358,70.708 120.09,70.671 117.534,70.601 L 117.751,74.091 L 130.927,74.308 C 130.674,73.083 130.385,71.861 130.098,70.636 z "
       i:knockout="Off"
       stroke-miterlimit="10"
       id="path2304" />
    <path
       style="fill:url(#linearGradient2525);fill-rule:evenodd;stroke:#204a87;stroke-width:0.036;stroke-miterlimit:10;fill-opacity:1.0"
       clip-rule="evenodd"
       d="M 107.922,75.785 L 90.713,76.037 L 90.57,80.861 L 108.174,80.609 L 107.922,75.785 z "
       i:knockout="Off"
       stroke-miterlimit="10"
       id="path2306" />
    <path
       style="fill:url(#linearGradient2521);fill-rule:evenodd;stroke:#204a87;stroke-width:0.036;stroke-miterlimit:10;fill-opacity:1.0"
       clip-rule="evenodd"
       d="M 82.362,76.144 L 65.154,76.361 L 65.046,81.22 L 82.65,80.968 L 82.362,76.144 z "
       i:knockout="Off"
       stroke-miterlimit="10"
       id="path2308" />
    <path
       style="fill:url(#linearGradient2549);fill-rule:evenodd;stroke:#204a87;stroke-width:0.036;stroke-miterlimit:10;fill-opacity:1.0"
       clip-rule="evenodd"
       d="M 61.986,85.72 C 52.842,85.827 45.75,85.865 40.314,85.827 C 34.806,85.684 34.41,85.323 29.694,85.179 C 24.942,84.964 19.11,84.675 12.054,84.46 C 13.026,88.024 14.034,90.976 15.078,93.712 C 16.05,96.376 17.058,98.571 18.102,100.444 C 17.418,100.948 16.986,101.524 16.95,102.028 C 16.806,102.495 16.086,102.999 17.562,103.54 C 19.002,104.007 20.658,104.583 25.302,104.979 C 29.838,105.303 38.19,105.448 44.67,105.7 C 51.078,105.843 57.162,106.059 63.462,106.204 L 63.174,100.587 C 59.682,100.839 56.406,100.948 52.914,100.911 C 49.458,100.804 45.93,100.696 42.474,100.3 L 42.366,92.739 C 46.002,92.919 49.35,92.956 52.806,92.991 C 56.19,92.991 59.286,92.991 62.49,92.848 C 62.346,90.472 62.166,88.095 61.986,85.72 z M 28.686,97.205 C 28.722,99.545 31.206,101.416 34.266,101.381 C 37.29,101.344 39.738,99.401 39.702,97.061 C 39.666,94.686 37.182,92.813 34.122,92.885 C 31.098,92.919 28.65,94.865 28.686,97.205 z "
       i:knockout="Off"
       stroke-miterlimit="10"
       id="path2310" />
    <path
       style="fill:url(#linearGradient2533);fill-rule:evenodd;stroke:#204a87;stroke-width:0.036;stroke-miterlimit:10;fill-opacity:1.0"
       clip-rule="evenodd"
       d="M 110.37,85.433 C 119.766,85.433 127.003,85.361 132.618,85.503 C 138.054,85.575 138.739,85.864 143.274,85.937 C 147.881,85.865 153.247,85.648 159.907,85.289 C 159.69,87.557 159.079,89.969 158.071,92.668 C 156.919,95.332 155.55,98.033 153.571,101.057 C 154.614,100.985 155.262,101.561 155.514,102.389 C 155.801,103.289 156.162,105.377 154.793,106.278 C 153.246,106.962 150.797,106.817 146.479,106.962 C 141.979,107.142 134.563,107.177 128.659,107.214 C 122.682,107.177 117.03,106.962 111.27,106.71 L 111.163,100.302 C 113.466,100.374 116.095,100.447 119.479,100.374 C 122.717,100.302 126.571,100.194 130.891,100.05 L 130.782,92.489 C 127.11,92.706 123.762,92.885 120.343,93.03 C 116.923,93.173 113.827,93.173 110.659,93.173 C 110.586,90.617 110.479,88.025 110.37,85.433 z M 144.606,96.556 C 144.606,98.896 142.194,100.839 139.133,100.876 C 136.074,100.948 133.59,99.04 133.553,96.7 C 133.518,94.36 135.965,92.415 139.026,92.38 C 142.049,92.343 144.571,94.216 144.606,96.556 z "
       i:knockout="Off"
       stroke-miterlimit="10"
       id="path2312" />
    <path
       style="fill:url(#linearGradient2523);fill-rule:evenodd;stroke:#204a87;stroke-width:0.036;stroke-miterlimit:10;fill-opacity:1.0"
       clip-rule="evenodd"
       d="M 83.874,76.216 L 83.946,81.003 L 89.129,80.933 L 89.059,76.144 L 83.874,76.216 z "
       i:knockout="Off"
       stroke-miterlimit="10"
       id="path2314" />
    <path
       style="fill:url(#linearGradient2519);fill-rule:evenodd;stroke:#204a87;stroke-width:0.036;stroke-miterlimit:10;fill-opacity:1.0"
       clip-rule="evenodd"
       d="M 64.254,86.007 C 63.786,86.007 65.118,85.972 68.25,86.044 C 71.418,86.044 76.098,86.151 82.83,86.224 L 83.262,106.384 C 80.022,106.529 77.106,106.529 73.974,106.529 C 70.878,106.457 67.854,106.384 64.902,106.168 L 64.974,100.588 C 67.89,100.553 70.698,100.588 73.254,100.553 C 75.846,100.518 78.186,100.408 80.418,100.373 L 80.238,92.74 C 76.422,92.849 73.218,92.885 70.626,92.849 C 67.998,92.74 66.018,92.56 64.542,92.308 C 64.47,90.22 64.362,88.132 64.254,86.007 z "
       i:knockout="Off"
       stroke-miterlimit="10"
       id="path2316" />
    <path
       style="fill:url(#linearGradient2515);fill-rule:evenodd;stroke:#204a87;stroke-width:0.036;stroke-miterlimit:10;fill-opacity:1.0"
       clip-rule="evenodd"
       d="M 108.499,85.937 C 108.858,85.9 107.563,85.9 104.466,86.08 C 101.37,86.152 96.476,86.404 89.923,86.693 L 90.03,106.853 C 93.198,106.853 96.151,106.853 99.319,106.708 C 102.378,106.601 105.403,106.349 108.391,106.095 L 108.137,100.517 C 105.186,100.624 102.377,100.697 99.858,100.732 C 97.231,100.769 94.891,100.769 92.694,100.732 L 92.694,93.101 C 96.475,93.029 99.534,92.884 102.27,92.956 C 104.934,92.884 107.022,93.028 108.678,93.101 C 108.643,90.724 108.571,88.349 108.499,85.937 z "
       i:knockout="Off"
       stroke-miterlimit="10"
       id="path2318" />
    <path
       style="fill:url(#linearGradient2517);fill-rule:evenodd;stroke:#204a87;stroke-width:0.036;stroke-miterlimit:10;fill-opacity:1.0"
       clip-rule="evenodd"
       d="M 83.946,86.693 L 84.198,106.457 L 89.022,106.385 L 88.735,86.621 L 83.946,86.693 z "
       i:knockout="Off"
       stroke-miterlimit="10"
       id="path2320" />
    <path
       style="fill:#bdbdbd;fill-rule:evenodd;stroke:#000000;stroke-width:0.036;stroke-miterlimit:10"
       clip-rule="evenodd"
       d="M 154.217,42.088 C 154.362,41.62 155.082,40.972 155.801,40.54 C 156.449,39.892 156.197,38.992 158.106,38.668 C 159.907,38.308 165.522,38.236 166.602,38.596 C 167.395,38.956 165.522,40 164.045,40.756 C 162.57,41.26 159.797,41.692 158.25,42.196 C 156.629,42.664 155.406,43.564 154.723,43.636 C 154.11,43.528 153.895,42.592 154.217,42.088 z "
       i:knockout="Off"
       stroke-miterlimit="10"
       id="path2322" />
    <path
       style="fill:#bdbdbd;fill-rule:evenodd;stroke:#000000;stroke-width:0.036;stroke-miterlimit:10"
       clip-rule="evenodd"
       d="M 17.778,39.496 C 17.49,38.956 16.77,38.452 16.158,37.984 C 15.402,37.3 15.582,36.508 13.782,36.184 C 11.91,35.968 6.258,35.896 5.286,36.364 C 4.314,36.652 6.438,37.804 7.914,38.416 C 9.246,38.92 12.162,39.208 13.746,39.712 C 15.33,40.144 16.518,41.008 17.31,41.044 C 17.886,40.936 17.994,40 17.778,39.496 z "
       i:knockout="Off"
       stroke-miterlimit="10"
       id="path2324" />
    <path
       style="opacity:0.5;fill:url(#radialGradient5491);fill-opacity:1.0;fill-rule:evenodd;stroke:none;stroke-width:0.036;stroke-miterlimit:10"
       d="M 25.552019,46.546796 C 26.640119,40.798308 28.583819,35.262979 30.493809,29.748373 C 31.529269,26.797048 32.817639,23.945973 34.136199,21.114026 C 35.582499,17.933593 36.990379,14.617967 39.399829,12.0282 C 40.608349,10.74826 42.282669,9.8899661 44.072299,9.9396341 C 46.322719,9.9360681 48.570159,9.8566491 50.817069,9.7358371 C 57.204359,9.6215781 63.592133,9.8770171 69.979992,9.7678991 C 78.503905,9.6975631 87.028749,9.6718651 95.552125,9.5814461 C 104.98222,9.3652332 114.4207,9.0270792 123.85165,9.3710302 C 125.96069,9.3747692 127.82258,10.550129 129.39127,11.85263 C 131.64726,13.916483 133.16952,16.625319 134.71261,19.22797 C 137.46209,24.326881 139.64385,29.703634 141.88587,35.037799 C 143.78158,39.742171 145.42406,44.542448 147.12602,49.318795 C 143.24978,48.90492 127.40426,34.570842 123.51681,34.454947 C 120.072,34.099232 103.92805,36.605224 101.81665,36.53085 C 96.271382,36.155736 86.785963,30.218883 76.563724,31.839202 C 68.936523,33.048183 55.147479,37.313152 52.978949,37.297806 C 49.825589,38.158752 38.475679,43.703033 35.601729,45.195723 C 32.509369,46.817941 29.282099,48.574492 25.715239,48.72436 C 24.258919,48.966524 25.755579,47.129402 25.789059,46.326267 C 25.972359,45.733398 26.365349,44.716962 26.417289,44.340455 C 26.122989,45.038242 25.799529,45.994703 25.552019,46.546796 z "
       id="path3534"
       sodipodi:nodetypes="cssssccccccccccscscssc" />
  </g>
</svg>
